<?xml version="1.0" encoding="UTF-8" standalone="no"?>
<svg
   xmlns:dc="http://purl.org/dc/elements/1.1/"
   xmlns:cc="http://creativecommons.org/ns#"
   xmlns:rdf="http://www.w3.org/1999/02/22-rdf-syntax-ns#"
   xmlns:svg="http://www.w3.org/2000/svg"
   xmlns="http://www.w3.org/2000/svg"
   xmlns:xlink="http://www.w3.org/1999/xlink"
   xmlns:sodipodi="http://sodipodi.sourceforge.net/DTD/sodipodi-0.dtd"
   xmlns:inkscape="http://www.inkscape.org/namespaces/inkscape"
   width="210mm"
   height="297mm"
   viewBox="0 0 210 297"
   version="1.1"
   id="svg8"
   inkscape:version="1.0 (4035a4fb49, 2020-05-01)"
   sodipodi:docname="Background.svg">
  <defs
     id="defs2">
    <linearGradient
       inkscape:collect="always"
       id="linearGradient4601">
      <stop
         style="stop-color:#ffcc00;stop-opacity:1;"
         offset="0"
         id="stop4597" />
      <stop
         style="stop-color:#fffcee;stop-opacity:1"
         offset="1"
         id="stop4599" />
    </linearGradient>
    <inkscape:perspective
       sodipodi:type="inkscape:persp3d"
       inkscape:vp_x="0 : 148.5 : 1"
       inkscape:vp_y="0 : 1000 : 0"
       inkscape:vp_z="210 : 148.5 : 1"
       inkscape:persp3d-origin="105 : 99 : 1"
       id="perspective3344" />
    <linearGradient
       inkscape:collect="always"
       id="linearGradient839">
      <stop
         style="stop-color:#000000;stop-opacity:1;"
         offset="0"
         id="stop835" />
      <stop
         style="stop-color:#666666;stop-opacity:1"
         offset="1"
         id="stop837" />
    </linearGradient>
    <radialGradient
       inkscape:collect="always"
       xlink:href="#linearGradient839"
       id="radialGradient841"
       cx="-362.38541"
       cy="-17.684464"
       fx="-362.38541"
       fy="-17.684464"
       r="158.75"
       gradientTransform="matrix(-6.1888466,-0.02591471,0.01625257,-3.8872273,-2604.8777,-195.73329)"
       gradientUnits="userSpaceOnUse" />
    <filter
       inkscape:collect="always"
       style="color-interpolation-filters:sRGB"
       id="filter2820"
       x="-0.032111006"
       width="1.064222"
       y="-0.03544264"
       height="1.0708853">
      <feGaussianBlur
         inkscape:collect="always"
         stdDeviation="0.46494954"
         id="feGaussianBlur2822" />
    </filter>
    <filter
       inkscape:collect="always"
       style="color-interpolation-filters:sRGB"
       id="filter3330"
       x="-0.063610489"
       width="1.127221"
       y="-0.063388569"
       height="1.1267771">
      <feGaussianBlur
         inkscape:collect="always"
         stdDeviation="337.87854"
         id="feGaussianBlur3332" />
    </filter>
    <filter
       inkscape:collect="always"
       style="color-interpolation-filters:sRGB"
       id="filter3334"
       x="-0.064323728"
       width="1.1286475"
       y="-0.068849955"
       height="1.1376999">
      <feGaussianBlur
         inkscape:collect="always"
         stdDeviation="1.4950192"
         id="feGaussianBlur3336" />
    </filter>
    <filter
       inkscape:collect="always"
       style="color-interpolation-filters:sRGB"
       id="filter3338"
       x="-1.286432"
       width="3.572864"
       y="-0.24175488"
       height="1.4835098">
      <feGaussianBlur
         inkscape:collect="always"
         stdDeviation="1.4950192"
         id="feGaussianBlur3340" />
    </filter>
    <filter
       inkscape:collect="always"
       style="color-interpolation-filters:sRGB"
       id="filter4583"
       x="-0.10800572"
       width="1.2160114"
       y="-0.10800572"
       height="1.2160114">
      <feGaussianBlur
         inkscape:collect="always"
         stdDeviation="21.601144"
         id="feGaussianBlur4585" />
    </filter>
    <radialGradient
       inkscape:collect="always"
       xlink:href="#linearGradient4601"
       id="radialGradient4607"
       cx="-364.07065"
       cy="365.67868"
       fx="-364.07065"
       fy="365.67868"
       r="158.75"
       gradientTransform="matrix(-1.0524431,0.00702031,-0.00313477,-0.4699465,-740.11784,511.76181)"
       gradientUnits="userSpaceOnUse" />
    <filter
       inkscape:collect="always"
       style="color-interpolation-filters:sRGB"
       id="filter5175"
       x="-1.0362438"
       width="3.0724875"
       y="-1.1827833"
       height="3.3655665">
      <feGaussianBlur
         inkscape:collect="always"
         stdDeviation="2.9375676"
         id="feGaussianBlur5177" />
    </filter>
  </defs>
  <sodipodi:namedview
     id="base"
     pagecolor="#ffffff"
     bordercolor="#666666"
     borderopacity="1.0"
     inkscape:pageopacity="0.0"
     inkscape:pageshadow="2"
     inkscape:zoom="0.35"
     inkscape:cx="-1377.8564"
     inkscape:cy="573.67737"
     inkscape:document-units="mm"
     inkscape:current-layer="layer1"
     inkscape:document-rotation="0"
     showgrid="false"
     inkscape:window-width="1920"
     inkscape:window-height="1017"
     inkscape:window-x="-8"
     inkscape:window-y="-8"
     inkscape:window-maximized="1" />
  <metadata
     id="metadata5">
    <rdf:RDF>
      <cc:Work
         rdf:about="">
        <dc:format>image/svg+xml</dc:format>
        <dc:type
           rdf:resource="http://purl.org/dc/dcmitype/StillImage" />
        <dc:title />
      </cc:Work>
    </rdf:RDF>
  </metadata>
  <g
     inkscape:label="Livello 1"
     inkscape:groupmode="layer"
     id="layer1">
    <rect
       inkscape:export-ydpi="96"
       inkscape:export-xdpi="96"
       inkscape:export-filename="D:\Project\Unity\GravitySpace\Assets\Sprites\Background.png"
       style="fill:url(#radialGradient841);stroke-width:0.264583;fill-opacity:1"
       id="rect833"
       width="317.5"
       height="508"
       x="-519.57196"
       y="-117.59859"
       rx="4.5211204e-06"
       ry="15.799091" />
    <path
       inkscape:export-ydpi="96"
       inkscape:export-xdpi="96"
       inkscape:export-filename="D:\Project\Unity\GravitySpace\Assets\Sprites\Background.png"
       style="opacity:1;fill:#b3b3b3;fill-opacity:1;stroke:none;stroke-width:1.31267;stroke-miterlimit:4;stroke-dasharray:none;filter:url(#filter2820)"
       id="path2484"
       sodipodi:type="arc"
       sodipodi:cx="-247.27335"
       sodipodi:cy="-92.841309"
       sodipodi:rx="17.375555"
       sodipodi:ry="15.74204"
       sodipodi:start="3.1537052"
       sodipodi:end="3.1344543"
       sodipodi:open="true"
       sodipodi:arc-type="arc"
       d="m -264.64763,-93.03198 a 17.375555,15.74204 0 0 1 17.50112,-15.55095 17.375555,15.74204 0 0 1 17.24867,15.780773 17.375555,15.74204 0 0 1 -17.3351,15.702846 17.375555,15.74204 0 0 1 -17.41552,-15.629626" />
    <path
       inkscape:export-ydpi="96"
       inkscape:export-xdpi="96"
       inkscape:export-filename="D:\Project\Unity\GravitySpace\Assets\Sprites\Background.png"
       style="opacity:1;fill:#000000;fill-opacity:1;stroke:none;stroke-width:1.31267;stroke-miterlimit:4;stroke-dasharray:none"
       id="path2490"
       sodipodi:type="arc"
       sodipodi:cx="-237.23743"
       sodipodi:cy="-90.776199"
       sodipodi:rx="12.944572"
       sodipodi:ry="11.727623"
       sodipodi:start="3.1537052"
       sodipodi:end="3.1344543"
       sodipodi:open="true"
       sodipodi:arc-type="arc"
       d="m -250.18105,-90.918247 a 12.944572,11.727623 0 0 1 13.03812,-11.585263 12.944572,11.727623 0 0 1 12.85004,11.756478 12.944572,11.727623 0 0 1 -12.91443,11.698424 12.944572,11.727623 0 0 1 -12.97435,-11.643876" />
    <g
       inkscape:export-ydpi="96"
       inkscape:export-xdpi="96"
       inkscape:export-filename="D:\Project\Unity\GravitySpace\Assets\Sprites\Background.png"
       id="g2832"
       stroke="none"
       fill="#000000"
       transform="matrix(0.00476784,0,0,-0.0041063,-392.34864,24.491473)"
       style="fill:#005500;fill-opacity:1;filter:url(#filter3330)">
      <path
         id="path2826"
         d="M 6085,12793 C 5305,12748 4664,12608 4000,12340 2828,11866 1827,11058 1108,10005 563,9207 202,8277 65,7316 17,6978 6,6797 6,6395 6,5999 17,5828 66,5490 328,3644 1384,2003 2958,997 3836,436 4801,112 5880,18 c 218,-19 821,-16 1045,5 438,42 832,116 1215,227 1708,494 3133,1684 3930,3280 224,450 349,786 495,1340 145,548 189,888 189,1460 1,415 -22,698 -90,1105 -226,1363 -858,2582 -1836,3540 -774,760 -1678,1286 -2723,1585 -548,157 -744,190 -1390,230 -137,9 -508,11 -630,3 z m 522,-43 h 63 l -51,-96 c -51,-95 -52,-96 -62,-225 -6,-76 -6,-134 -1,-139 10,-10 176,-61 181,-56 2,2 11,42 20,89 16,81 20,90 64,133 l 47,46 319,-142 c 175,-79 365,-166 423,-195 l 105,-52 263,21 262,22 73,72 c 40,40 75,72 79,72 3,0 174,-81 380,-180 l 373,-180 h 168 169 l 96,-57 c 296,-173 640,-420 922,-662 113,-97 322,-293 317,-297 -2,-2 -79,25 -173,60 -408,152 -682,286 -817,398 l -48,40 -371,29 -372,30 -83,-83 c -46,-45 -83,-89 -83,-98 1,-8 18,-55 39,-105 l 38,-90 71,-3 c 40,-2 72,-6 73,-10 0,-4 6,-63 13,-132 7,-69 12,-126 12,-127 -1,-1 -55,30 -120,69 -93,55 -120,68 -127,57 -5,-8 -41,-72 -81,-142 -63,-112 -75,-127 -93,-122 -11,4 -47,9 -80,12 -33,2 -69,8 -80,13 -11,5 -31,10 -45,12 -18,2 -30,14 -43,41 -20,41 -27,42 -108,27 -36,-7 -63,-20 -84,-40 l -30,-29 -45,34 c -43,33 -49,35 -128,35 -89,0 -84,3 -106,-67 -6,-19 -2,-22 44,-28 l 50,-7 -45,-56 c -41,-53 -43,-58 -30,-79 21,-31 20,-33 -23,-33 -49,0 -171,31 -256,65 -74,30 -154,34 -206,12 -42,-17 -103,-76 -234,-225 l -99,-114 79,-79 79,-79 h 57 c 32,0 92,-10 133,-22 64,-19 76,-26 84,-50 11,-32 24,-33 204,-21 l 98,6 117,93 c 123,99 123,99 283,126 65,11 66,11 173,-32 98,-39 112,-42 164,-36 154,18 175,19 168,8 -10,-16 21,-82 80,-172 27,-41 72,-130 100,-196 29,-67 75,-155 102,-197 45,-66 52,-83 59,-148 8,-71 9,-74 33,-72 14,2 80,-2 148,-8 68,-6 125,-9 128,-6 3,2 -12,31 -32,63 -27,44 -55,71 -110,108 -61,42 -75,57 -90,95 -9,25 -48,126 -86,224 -39,98 -68,180 -66,181 1,2 23,11 48,20 52,20 51,21 100,-74 16,-30 51,-89 79,-129 49,-74 52,-76 168,-135 l 118,-61 5,-86 c 8,-130 24,-150 170,-204 l 115,-42 85,45 c 121,64 122,65 149,115 l 25,45 -42,56 -43,56 h 109 110 l 85,-93 c 83,-90 88,-94 231,-165 118,-58 146,-76 142,-90 -2,-9 -7,-44 -11,-76 l -7,-59 88,-88 88,-89 -34,-35 c -19,-19 -37,-35 -42,-35 -23,0 -402,177 -515,241 l -132,74 -223,-12 c -123,-7 -242,-15 -264,-18 l -41,-6 4,-92 c 2,-51 6,-102 8,-113 3,-15 56,-55 168,-128 132,-86 197,-120 340,-180 154,-64 447,-221 463,-247 3,-5 0,-55 -6,-111 -11,-94 -17,-112 -64,-200 -28,-54 -54,-98 -59,-98 -4,0 -43,24 -87,53 -55,37 -134,110 -262,243 l -183,189 -51,1 c -49,0 -55,3 -207,123 l -157,122 -72,-3 -72,-3 -21,-85 -21,-85 -35,3 c -64,6 -69,10 -70,55 0,23 -3,50 -7,59 -4,9 -135,112 -292,228 -157,116 -284,214 -283,216 0,3 30,38 66,78 63,70 68,74 146,96 45,12 81,26 81,30 0,3 -21,38 -48,76 l -47,69 -54,3 c -49,3 -65,11 -172,85 l -119,81 -115,-28 -115,-28 -72,58 c -39,33 -106,88 -147,122 l -76,64 -97,-6 c -147,-8 -290,14 -423,64 l -110,42 -135,-12 -135,-12 -145,-102 -145,-102 -135,-23 c -123,-20 -141,-26 -205,-66 -38,-24 -104,-53 -145,-65 -70,-20 -77,-25 -115,-76 l -40,-55 -126,6 -125,6 -135,-121 c -86,-78 -136,-131 -141,-148 -4,-15 -23,-99 -44,-188 l -37,-160 -132,-140 c -128,-135 -132,-141 -148,-206 -10,-39 -17,-107 -17,-162 0,-91 2,-101 50,-221 64,-161 146,-325 328,-658 l 147,-267 57,-35 c 54,-32 67,-35 166,-41 l 107,-7 138,-109 c 97,-75 147,-108 165,-108 15,0 117,-7 227,-15 110,-8 205,-15 210,-15 6,0 26,-25 45,-56 l 34,-56 52,7 52,6 92,-107 93,-106 41,5 c 23,3 59,9 82,12 l 40,7 26,-179 25,-178 -63,-89 c -35,-49 -97,-118 -137,-153 l -74,-64 29,-167 c 15,-93 39,-302 52,-470 25,-302 25,-302 5,-372 -38,-137 -38,-137 -169,-224 l -119,-79 -143,-426 -142,-426 44,-217 44,-217 -28,-187 -28,-188 -88,-115 -88,-116 -7,-114 c -5,-77 -15,-137 -30,-182 l -23,-67 88,-26 88,-26 100,45 99,45 h 124 124 l 208,-67 209,-67 131,66 c 73,37 230,125 349,196 l 217,129 107,11 c 59,7 111,17 115,23 3,6 12,84 20,172 l 13,161 57,66 58,67 98,12 c 157,20 163,22 262,105 l 92,76 h 78 78 l 279,250 c 314,282 288,245 319,450 9,58 26,153 39,212 23,106 24,108 131,266 l 107,159 67,7 c 36,3 83,6 105,6 24,0 81,19 155,51 98,44 150,77 341,217 l 226,165 74,126 c 133,227 180,309 180,318 0,5 -34,21 -75,36 l -75,26 -38,-40 -37,-40 -93,75 c -117,95 -111,91 -120,65 -6,-14 -12,21 -20,111 -8,88 -9,138 -2,150 23,44 12,74 -53,142 -73,75 -113,151 -182,338 -43,116 -47,137 -61,291 -12,138 -12,177 -1,230 8,43 11,99 6,169 -6,109 -2,444 7,516 l 5,41 75,-17 c 41,-10 78,-21 81,-24 4,-4 -4,-109 -18,-234 l -25,-227 48,-104 48,-103 v -177 c 0,-268 18,-395 80,-579 l 52,-152 121,-153 c 66,-83 121,-154 123,-155 1,-2 27,15 57,37 53,41 54,41 143,41 l 89,1 285,315 285,315 17,82 c 9,45 17,89 18,98 0,18 -61,105 -203,289 -104,134 -110,137 -193,77 -30,-21 -58,-36 -62,-33 -3,4 -11,47 -18,97 -10,75 -20,103 -56,167 -36,63 -48,76 -65,74 -15,-2 -28,6 -39,23 -14,21 -15,40 -10,113 4,48 13,114 19,146 12,59 12,60 75,94 35,19 64,33 66,31 10,-14 110,-299 128,-368 l 23,-84 135,-116 c 74,-64 207,-185 295,-270 l 159,-154 44,-141 c 25,-77 59,-211 76,-296 l 32,-155 69,-27 70,-26 -3,-199 c -2,-109 -15,-373 -28,-587 -14,-214 -24,-390 -22,-391 2,-1 22,-12 46,-24 23,-12 42,-26 42,-31 0,-31 -108,-393 -166,-556 C 12101,3597 11756,2978 11303,2412 10364,1240 9034,438 7565,156 7166,80 6815,48 6375,48 5915,48 5558,82 5144,165 l -162,32 -95,99 c -52,55 -105,112 -118,127 -25,29 -40,34 -1434,469 l -260,81 -170,112 C 2178,1563 1567,2175 1087,2906 l -106,161 -52,368 c -51,367 -52,368 -89,434 -21,36 -50,109 -66,160 l -28,94 17,136 c 12,99 21,139 33,146 8,6 43,28 77,50 l 61,40 -2,55 c -1,30 -5,105 -8,165 l -5,110 105,77 106,78 v 107 108 l 241,315 c 132,173 244,319 249,324 6,6 46,-2 102,-19 l 93,-27 39,44 c 25,27 141,231 301,528 l 261,484 144,29 144,29 41,46 c 80,91 77,84 65,157 -9,53 -28,100 -98,230 l -87,162 -120,75 -120,75 -3,185 -2,184 -178,95 -177,94 2,244 3,244 40,74 41,74 -40,66 c -38,63 -46,70 -148,127 l -108,61 -24,105 -24,105 17,182 c 10,100 14,188 9,196 -12,20 -224,297 -227,297 -2,0 -72,-27 -155,-60 -148,-58 -155,-60 -247,-60 -52,0 -94,2 -94,5 0,11 141,215 242,350 332,445 743,865 1177,1203 185,144 174,139 301,141 85,2 151,-5 290,-30 l 181,-32 37,36 c 22,21 47,62 60,97 18,46 43,81 101,142 l 77,81 83,5 c 72,4 91,9 139,38 66,40 192,90 259,103 27,6 181,20 343,32 l 295,21 31,30 c 17,16 53,56 80,89 48,58 50,59 99,59 69,-1 194,-18 227,-31 15,-6 29,-22 33,-37 3,-14 16,-39 27,-55 16,-22 19,-39 16,-77 -5,-44 -3,-48 12,-40 10,5 62,56 115,112 87,93 105,119 184,268 l 88,165 69,7 c 38,4 103,10 145,13 l 76,6 46,82 47,82 -43,6 -42,6 50,3 c 208,12 399,17 505,14 69,-2 153,-4 187,-4 z M 223,7247 c 37,-149 87,-376 111,-503 l 44,-231 -8,-219 -8,-219 94,-171 c 52,-93 94,-175 94,-182 0,-6 -21,-85 -46,-174 l -46,-163 -11,-300 -10,-301 61,-174 c 64,-181 87,-284 156,-696 l 32,-192 60,-98 c 45,-74 74,-140 120,-276 34,-99 58,-176 53,-171 -14,15 -137,240 -207,380 -346,692 -555,1420 -637,2218 -43,416 -37,982 15,1400 23,178 51,345 59,345 3,0 37,-123 74,-273 z"
         style="fill:#005500;fill-opacity:1" />
      <path
         id="path2828"
         d="m 8225,11360 10,-130 -85,-97 c -59,-67 -95,-118 -113,-162 -15,-35 -26,-65 -24,-67 4,-5 461,17 466,22 7,6 -39,152 -79,254 -21,52 -43,131 -50,175 -7,44 -16,86 -20,94 -7,13 -78,40 -105,41 -7,0 -7,-42 0,-130 z"
         style="fill:#005500;fill-opacity:1" />
      <path
         id="path2830"
         d="m 9968,3259 -137,-110 -163,-11 -163,-11 -87,-66 c -85,-64 -88,-68 -118,-146 -30,-77 -36,-84 -136,-173 -106,-95 -138,-112 -206,-112 -42,0 -45,-5 -22,-38 15,-21 13,-25 -45,-90 l -61,-67 v -82 c 0,-83 0,-83 26,-83 33,0 335,30 350,35 6,2 139,146 295,320 156,175 302,338 324,362 37,41 46,45 110,55 69,11 71,11 153,92 45,44 82,85 82,91 0,17 -51,145 -58,145 -4,-1 -69,-50 -144,-111 z"
         style="fill:#005500;fill-opacity:1" />
    </g>
    <path
       inkscape:export-ydpi="96"
       inkscape:export-xdpi="96"
       inkscape:export-filename="D:\Project\Unity\GravitySpace\Assets\Sprites\Background.png"
       style="opacity:1;fill:#0090ff;fill-opacity:1;stroke:none;stroke-width:0.106427;stroke-miterlimit:4;stroke-dasharray:none;filter:url(#filter3334)"
       d="m -364.2992,24.152481 c -0.87415,-0.05184 -2.17453,-0.188215 -2.88975,-0.303007 -1.19825,-0.192321 -1.35145,-0.251234 -1.95057,-0.750104 -0.62534,-0.520697 -0.80142,-0.582286 -4.60625,-1.61124 -3.55794,-0.96218 -4.05958,-1.131592 -4.98482,-1.683386 -2.92932,-1.74701 -5.73476,-4.110262 -7.6941,-6.481384 l -1.17483,-1.421735 -0.24229,-1.468652 c -0.13325,-0.8077569 -0.36856,-1.7223679 -0.52289,-2.0324659 -0.27859,-0.55974 -0.37355,-1.599776 -0.17004,-1.862274 0.0584,-0.07531 0.25657,-0.205172 0.4404,-0.288588 0.3064,-0.139028 0.32627,-0.206661 0.2385,-0.811718 -0.0941,-0.64889 -0.087,-0.665835 0.42431,-1.00169 0.42479,-0.279055 0.52134,-0.424418 0.52703,-0.79352 0.006,-0.369441 0.21169,-0.678892 1.12913,-1.696272 1.08808,-1.20658917 1.13852,-1.24354917 1.66016,-1.21646117 0.63257,0.03288 0.69779,-0.04203 2.33305,-2.67934643 l 1.01141,-1.63117 0.6411,-0.08514 c 0.64384,-0.0855 1.30947,-0.505114 1.30947,-0.825496 0,-0.09059 -0.21753,-0.555645 -0.4834,-1.033453 -0.36858,-0.662395 -0.60576,-0.925487 -0.99853,-1.107664 -0.54194,-0.251355 -0.68505,-0.548379 -0.68572,-1.423116 -3.2e-4,-0.420348 -0.0545,-0.475458 -0.79468,-0.808557 l -0.79434,-0.357469 v -0.9744065 c 0,-0.535921 0.0755,-1.117039 0.16769,-1.291361 0.23303,-0.440485 -0.0267,-0.885251 -0.67148,-1.150093 -0.63215,-0.259621 -0.81653,-0.749347 -0.69703,-1.851403 0.0836,-0.770707 0.0727,-0.803549 -0.47016,-1.416588 -0.30564,-0.345168 -0.59111,-0.627555 -0.63438,-0.627518 -0.0433,0 -0.42073,0.11203 -0.83879,0.248884 -0.7805,0.255491 -1.33735,0.320503 -1.33183,0.155482 10e-4,-0.05136 0.44035,-0.597311 0.97474,-1.213287 1.20027,-1.383516 3.7659,-3.682525 5.30734,-4.755809 l 1.15589,-0.804839 1.1559,0.07121 c 0.63575,0.03918 1.29359,0.104944 1.46189,0.146186 0.24386,0.05977 0.37328,-0.02186 0.63744,-0.401883 0.49883,-0.717645 0.87798,-1.036833 1.23161,-1.036833 0.17521,0 0.67358,-0.139979 1.10747,-0.311062 0.61208,-0.241332 1.13274,-0.32918 2.32289,-0.391891 1.44057,-0.07591 1.55802,-0.102437 1.92861,-0.435579 0.31502,-0.283197 0.52093,-0.354743 1.02087,-0.354743 0.64706,0 0.68986,0.03519 0.9756,0.80155 0.0822,0.220403 0.13317,0.20404 0.58173,-0.186658 0.2704,-0.235531 0.70895,-0.764227 0.97453,-1.174874 0.47433,-0.733414 0.49495,-0.747313 1.16427,-0.784581 0.57935,-0.03228 0.71285,-0.09033 0.89145,-0.387791 0.25219,-0.420022 0.65564,-0.507567 2.33908,-0.507567 h 1.21341 l -0.22935,0.301462 c -0.12614,0.165802 -0.26605,0.607752 -0.31091,0.982111 -0.0815,0.680418 -0.0814,0.680678 0.36698,0.765499 0.52374,0.09908 0.74457,0.0129 0.74457,-0.290477 0,-0.119758 0.0896,-0.323289 0.19912,-0.452282 0.19055,-0.22443 0.28667,-0.200533 2.23249,0.555113 l 2.03338,0.789638 1.25609,-0.07635 c 0.98428,-0.05983 1.32393,-0.131234 1.56961,-0.330011 0.17243,-0.139518 0.39168,-0.253668 0.48722,-0.253668 0.0955,0 0.88675,0.307991 1.75825,0.684421 1.38133,0.596639 1.69321,0.684421 2.43183,0.684421 0.77716,0 0.95194,0.05656 2.11189,0.683779 1.72888,0.934825 4.98107,3.167708 4.62002,3.171996 -0.42746,0.0048 -3.17025,-1.08674 -3.88995,-1.548475 -0.35963,-0.230722 -0.74113,-0.29996 -2.23956,-0.406474 l -1.80609,-0.128387 -0.39734,0.319237 c -0.43404,0.348729 -0.48586,0.5914 -0.22966,1.075682 0.10672,0.20172 0.28482,0.316948 0.4899,0.316948 0.26068,0 0.33349,0.08319 0.38126,0.435541 0.0325,0.239546 0.0433,0.435537 0.024,0.435537 -0.0193,0 -0.26143,-0.11507 -0.5382,-0.255709 l -0.50323,-0.255716 -0.38568,0.566813 c -0.4232,0.621935 -0.71124,0.698768 -1.42228,0.379386 -0.48769,-0.219052 -0.98277,-0.239891 -1.20254,-0.05063 -0.11312,0.09742 -0.18425,0.09742 -0.25416,0 -0.1604,-0.223515 -1.08713,-0.165293 -1.19421,0.07503 -0.0515,0.115664 -0.0264,0.229614 0.0558,0.253221 0.0822,0.02362 0.11896,0.180409 0.0817,0.348457 -0.071,0.319661 -0.26448,0.326462 -1.16386,0.04088 -0.81737,-0.259549 -1.25068,-0.137635 -2.02857,0.570751 -0.40887,0.372336 -0.7434,0.719255 -0.7434,0.770937 0,0.05172 0.17471,0.251028 0.38825,0.442991 0.26903,0.241842 0.53206,0.349021 0.8566,0.349021 0.25759,0 0.57383,0.09084 0.70276,0.201877 0.37992,0.327207 1.45582,0.171077 2.28054,-0.330931 0.73419,-0.446916 0.93922,-0.470468 2.64243,-0.303594 l 0.87436,0.08566 0.82442,1.38678 c 0.45343,0.762725 0.82395,1.484772 0.82337,1.604548 -7e-4,0.170501 0.12182,0.217769 0.56507,0.217769 0.31138,0 0.66899,0.03397 0.79468,0.07553 0.41021,0.13557 0.24636,-0.23682 -0.33231,-0.75524 -0.32249,-0.288914 -0.69093,-0.808557 -0.86692,-1.222667 -0.35953,-0.846008 -0.35809,-0.836434 -0.12545,-0.831365 0.0993,0.0024 0.35453,0.250877 0.56712,0.552697 0.24043,0.341365 0.60903,0.646522 0.97528,0.807449 0.47012,0.206558 0.58923,0.327158 0.59099,0.598377 0.003,0.470577 0.12629,0.597493 0.80825,0.832496 0.57057,0.196627 0.61284,0.194175 1.12309,-0.06511 0.58623,-0.297895 0.90165,-0.676245 0.66761,-0.800817 -0.25875,-0.137732 -0.1532,-0.31131 0.18931,-0.31131 0.18577,0 0.52266,0.170949 0.75856,0.38492 0.2334,0.211707 0.73321,0.520642 1.11069,0.686517 0.56077,0.246425 0.68632,0.362561 0.68632,0.634895 0,0.191279 0.16369,0.48046 0.38416,0.678649 0.6817,0.612821 0.062,0.557741 -1.55138,-0.137895 l -1.47431,-0.635664 -1.28001,0.08323 -1.28001,0.08322 v 0.473926 c 0,0.417968 0.0725,0.51656 0.61407,0.83498 0.33774,0.198571 1.40171,0.705804 2.36437,1.127176 l 1.75031,0.766129 -0.0999,0.4654045 c -0.055,0.255976 -0.19956,0.628185 -0.32134,0.827131 l -0.22142,0.361726 -1.22761,-1.015031 c -0.67519,-0.5582735 -1.31231,-1.0150365 -1.41583,-1.0150365 -0.10353,0 -0.5327,-0.223988 -0.95372,-0.497757 -0.92358,-0.600563 -1.56311,-0.670613 -1.70414,-0.186664 -0.10301,0.35349 -0.51862,0.426283 -0.51862,0.09084 0,-0.132276 -0.51949,-0.555391 -1.30038,-1.059149 -0.71522,-0.46139 -1.30039,-0.890186 -1.30039,-0.952878 0,-0.155149 0.71608,-0.629826 0.95012,-0.629826 0.1038,0 0.22419,-0.04942 0.26752,-0.109808 0.1178,-0.164154 -0.47922,-0.761266 -0.76112,-0.761266 -0.13472,0 -0.49211,-0.144642 -0.79418,-0.321429 -0.47352,-0.277123 -0.62255,-0.305865 -1.08108,-0.208515 -0.49125,0.104297 -0.58299,0.0766 -1.20209,-0.362991 -0.57623,-0.409157 -0.77014,-0.475907 -1.38252,-0.475907 -0.39175,0 -1.06544,-0.09191 -1.49707,-0.204233 -1.21463,-0.316112 -2.08703,-0.235979 -2.89873,0.266253 -0.37388,0.231346 -0.92896,0.458731 -1.2335,0.505314 -0.64216,0.09822 -2.28258,0.717663 -2.42458,0.915555 -0.0532,0.07416 -0.37067,0.134831 -0.70545,0.134831 -0.51524,0 -0.71104,0.08121 -1.27522,0.528866 -0.57045,0.452633 -0.69209,0.6365 -0.84379,1.275507 -0.14728,0.620403 -0.29667,0.855836 -0.88355,1.392497 -0.68381,0.625283 -0.70631,0.66968 -0.70631,1.3933495 0,0.689102 0.0909,0.901099 1.16402,2.714017 0.6402,1.081587 1.25108,2.042653 1.35749,2.135703 0.10641,0.09305 0.49941,0.218405 0.87331,0.278565 0.38438,0.06184 0.97182,0.292215 1.35165,0.530053 0.57794,0.361896 0.81868,0.429348 1.72305,0.482798 0.68562,0.04051 1.14187,0.132754 1.31177,0.265175 0.14328,0.111679 0.36586,0.203046 0.49463,0.203046 0.12876,0 0.41198,0.20083 0.62936,0.446292 0.31748,0.358474 0.4728,0.436488 0.78935,0.396476 0.33909,-0.04288 0.40597,0.0012 0.47904,0.3159 0.18726,0.806371 0.097,1.11510003 -0.50591,1.73093143 l -0.59084,0.603476 0.14848,1.02224997 c 0.42785,2.9455202 0.37757,3.3208302 -0.52032,3.8843602 -0.55687,0.349499 -0.63827,0.48404 -1.27593,2.108779 l -0.68111,1.735461 0.17927,0.950734 c 0.24152,1.2808599 0.0906,2.2828039 -0.43045,2.8567269 -0.21813,0.240285 -0.43848,0.660875 -0.48968,0.934644 -0.0512,0.273762 -0.12688,0.64522 -0.16817,0.825453 -0.0642,0.280067 -0.009,0.347525 0.37913,0.464073 0.35716,0.107234 0.54252,0.09703 0.86752,-0.04772 0.57595,-0.256508 1.5815,-0.229583 2.73948,0.07334 l 0.98404,0.25742 0.59751,-0.262532 c 0.32863,-0.144393 1.08788,-0.512224 1.68722,-0.817399 0.59935,-0.305174 1.21866,-0.55487 1.37625,-0.55487 0.61967,0 0.84549,-0.225853 0.84549,-0.845614 0,-0.753393 0.49142,-1.269856 1.20825,-1.269856 0.30219,0 0.67995,-0.134129 1.04169,-0.36986 0.31216,-0.203421 0.7303,-0.371415 0.92921,-0.373317 0.35026,-0.0036 2.38928,-1.4460379 2.87822,-2.0364509 0.11309,-0.136563 0.28758,-0.65425 0.38776,-1.150413 0.24778,-1.227144 1.03771,-2.29118 1.70274,-2.293554 0.57816,-0.0018 1.51983,-0.399994 2.79063,-1.17927 0.83141,-0.509844 1.12268,-0.786417 1.62844,-1.546302 0.58028,-0.871842 0.60078,-0.934934 0.35432,-1.090149 -0.3193,-0.2010852 -0.53114,-0.2085882 -0.74278,-0.02634 -0.11799,0.101626 -0.29858,0.04372 -0.67909,-0.2177692 -0.47363,-0.32547997 -0.51834,-0.41123997 -0.51834,-0.99427697 -10e-6,-0.444645 -0.0731,-0.689841 -0.24112,-0.80886 -0.1326,-0.09393 -0.43972,-0.53477043 -0.68249,-0.97963943 -0.44044,-0.807153 -0.44139,-0.813602 -0.44521,-3.048776 -0.004,-2.237862 -0.004,-2.239951 0.32554,-2.280163 0.32623,-0.03985 0.32844,-0.03064 0.2319,0.966292 -0.076,0.7846 -0.047,1.10902 0.1313,1.471304 0.13487,0.273992 0.25571,0.975558 0.2944,1.709165 0.0772,1.464334 0.3174,2.10385543 1.13128,3.01243443 0.57571,0.642689 0.60611,0.65818597 0.93109,0.474798 0.18478,-0.104267 0.51844,-0.189578 0.74148,-0.189578 0.32185,0 0.6136,-0.197529 1.41383,-0.957214 2.14675,-2.03796643 2.18761,-2.15905643 1.13861,-3.37482043 -0.69342,-0.803664 -0.77544,-0.847685 -1.20797,-0.648315 -0.22733,0.104782 -0.27751,0.05965 -0.3613,-0.325002 -0.0535,-0.24568 -0.26157,-0.588166 -0.46235,-0.76109 -0.31844,-0.274253 -0.35299,-0.383673 -0.2706,-0.856848 0.0595,-0.341699 0.19391,-0.588294 0.36319,-0.666325 0.23912,-0.110214 0.30352,-0.03137 0.58416,0.715209 0.29145,0.775292 0.42851,0.933663 1.803,2.083471 l 1.48757,1.244396 0.24455,0.933299 c 0.36156,1.37984043 0.35853,1.37371143 0.73938,1.49841743 0.26571,0.08701 0.33579,0.184557 0.28539,0.397305 -0.0367,0.155082 -0.10655,1.22568997 -0.15514,2.37912517 -0.0748,1.776648 -0.0553,2.118964 0.12766,2.239915 0.18779,0.124124 0.13404,0.355864 -0.41158,1.774595 -3.87913,10.0865209 -14.25365,17.0824569 -26.45577,17.8401439 -2.17941,0.135328 -2.12849,0.13537 -4.47102,-0.0036 z m 15.51971,-9.031907 c 0.34927,-0.06014 0.81857,-0.426562 1.9923,-1.555494 0.85828,-0.825521 1.64751,-1.476797 1.78962,-1.476797 0.38451,0 1.14363,-0.607534 1.14111,-0.913247 -0.005,-0.602665 -0.2301,-0.6609 -0.8626,-0.223134 -0.62541,0.43286 -1.24707,0.638625 -1.92943,0.638625 -0.54304,0 -1.2103,0.421045 -1.44988,0.914877 -0.20389,0.420263 -0.99966,1.016987 -1.45749,1.092923 -0.15073,0.02501 -0.24643,0.07345 -0.21266,0.10767 0.0338,0.03422 -0.0846,0.238862 -0.26312,0.454753 -0.17849,0.215891 -0.32453,0.537877 -0.32453,0.71553 0,0.292137 0.0535,0.322996 0.55989,0.322996 0.30793,0 0.76549,-0.03543 1.01679,-0.0787 z m -3.08788,-35.604399 c -0.0534,-0.11977 -0.23811,-0.637753 -0.41029,-1.151067 -0.31373,-0.935267 -0.44174,-1.114501 -0.79856,-1.11805 -0.13595,-0.0012 -0.18028,0.155622 -0.15276,0.54099 0.0317,0.444209 -0.0407,0.630826 -0.39854,1.026629 -0.80672,0.892353 -0.78861,0.919266 0.61832,0.919266 1.12079,0 1.22979,-0.02077 1.14183,-0.217768 z"
       id="path2846" />
    <path
       inkscape:export-ydpi="96"
       inkscape:export-xdpi="96"
       inkscape:export-filename="D:\Project\Unity\GravitySpace\Assets\Sprites\Background.png"
       style="opacity:1;fill:#0090ff;fill-opacity:1;stroke:none;stroke-width:0.106427;stroke-miterlimit:4;stroke-dasharray:none;filter:url(#filter3338)"
       d="m -389.90918,7.8561441 c -1.66865,-3.688854 -2.3813,-7.66781617 -2.05197,-11.4567886 0.23791,-2.737169 0.29024,-2.802671 0.78407,-0.981445 0.27912,1.029384 0.44115,2.010205 0.48183,2.916646 0.0551,1.22788243 0.10406,1.43095243 0.48503,2.01231843 0.41912,0.639612 0.42142,0.65379497 0.21223,1.30975317 -0.11632,0.364724 -0.24718,1.240466 -0.29081,1.946089 -0.0668,1.079946 -0.0355,1.378719 0.19764,1.888134 0.30758,0.672054 0.92379,3.279824 0.83141,3.518498 -0.0324,0.08372 -0.32465,-0.435216 -0.64943,-1.153205 z"
       id="path2848" />
    <g
       inkscape:export-ydpi="96"
       inkscape:export-xdpi="96"
       inkscape:export-filename="D:\Project\Unity\GravitySpace\Assets\Sprites\Background.png"
       id="g4369"
       transform="matrix(0.07566883,0,0,0.07724287,-261.24529,155.54473)"
       style="filter:url(#filter4583)">
      <g
         id="g4270">
        <path
           id="path4182"
           d="m 24.746,346.221 c -0.636,-1.286 -1.262,-2.579 -1.876,-3.878 0.613,1.3 1.24,2.592 1.876,3.878 z"
           style="fill:#ff4f19" />
        <path
           id="path4184"
           d="m 22.327,341.18 c -0.588,-1.263 -1.168,-2.53 -1.735,-3.804 0.566,1.275 1.147,2.541 1.735,3.804 z"
           style="fill:#ff4f19" />
        <path
           id="path4186"
           d="m 20.031,336.094 c -0.549,-1.254 -1.093,-2.512 -1.621,-3.777 0.528,1.265 1.072,2.522 1.621,3.777 z"
           style="fill:#ff4f19" />
        <path
           id="path4188"
           d="m 17.864,330.98 c -0.519,-1.265 -1.035,-2.533 -1.533,-3.809 0.498,1.277 1.014,2.544 1.533,3.809 z"
           style="fill:#ff4f19" />
        <path
           id="path4190"
           d="m 303.561,8.525 c 38.557,10.583 73.23,30.554 101.437,57.281 C 395.485,64.659 385.822,64 376,64 251.73,64 149.521,158.448 137.238,279.477 v 0 c -0.003,0.032 -0.006,0.065 -0.009,0.097 -0.001,0.014 -0.002,0.028 -0.004,0.042 31.69,5.489 67.028,8.384 102.775,8.384 41.859,0 82.789,-3.922 118.367,-11.344 14.039,-2.938 27.203,-6.406 39.141,-10.328 4.195,-1.391 8.711,0.906 10.094,5.109 1.375,4.195 -0.906,8.711 -5.109,10.094 -7.778,2.554 -16.087,4.897 -24.746,7.059 -0.101,0.083 -0.148,0.205 -0.254,0.285 l -15.656,11.742 16.289,4.492 c 3.508,0.969 5.922,4.172 5.875,7.805 -0.047,3.641 -2.531,6.789 -6.063,7.664 C 337.57,330.672 289.867,336 240,336 c -3.523,0 -6.633,-2.305 -7.656,-5.68 -1.023,-3.375 0.289,-7.023 3.219,-8.977 2.563,-1.711 2.469,-4.25 2.313,-5.258 -0.156,-1.016 -0.844,-3.469 -3.813,-4.313 l -43.789,-9.68 c -0.065,-0.015 -0.112,-0.062 -0.177,-0.078 -18.638,-1.396 -36.801,-3.486 -53.936,-6.363 -0.095,2.772 -0.16,5.552 -0.16,8.348 0,54.205 18.011,104.173 48.33,144.339 18.574,-8.458 37.683,-17.042 56.006,-16.331 28.82,1.266 43.547,-6.867 43.688,-6.953 3.828,-2.133 8.711,-0.82 10.891,2.984 2.18,3.813 0.914,8.656 -2.883,10.867 -0.734,0.438 -18.305,10.547 -52.367,9.086 -13.441,-0.686 -29.28,6.086 -44.936,13.195 0,0 0.001,0.001 0.002,0.002 -0.001,0.001 -0.002,0.001 -0.004,0.002 5.148,5.928 10.579,11.605 16.276,17.003 -12.859,-1.55 -25.402,-4.12 -37.553,-7.619 -0.001,0 -0.003,10e-4 -0.004,0.002 -0.035,-0.01 -0.07,-0.022 -0.105,-0.032 -2.008,-0.579 -4.005,-1.186 -5.992,-1.816 -1.236,-0.389 -2.461,-0.801 -3.688,-1.208 -0.474,-0.159 -0.949,-0.314 -1.421,-0.475 -5.38,-1.822 -10.685,-3.803 -15.878,-6.005 0.055,0.002 0.115,-0.003 0.171,-0.002 C 97.059,440.104 56.062,403.067 30.136,356.486 71.109,430.151 149.727,480 240,480 372.548,480 480,372.548 480,240 480,129.458 405.259,36.388 303.561,8.525 Z M 272,232 c -0.258,0.016 -0.68,-0.008 -1.023,-0.008 -11.43,0 -18.469,3.594 -26.594,7.742 -8.633,4.406 -18.18,9.281 -32.875,9.281 -3.891,0 -8.133,-0.344 -12.82,-1.125 -4.359,-0.727 -7.305,-4.852 -6.578,-9.203 0.719,-4.359 4.828,-7.352 9.203,-6.578 17.211,2.852 25.813,-1.531 35.797,-6.625 8.938,-4.57 18.742,-9.945 35.023,-9.484 4.414,0.07 7.938,3.711 7.867,8.133 -0.07,4.367 -3.641,7.867 -8,7.867 z m 62.289,-11.055 c -7.18,9.141 -24.672,10.766 -29.859,11.047 -0.149,0.008 -0.289,0.008 -0.438,0.008 -4.219,0 -7.742,-3.297 -7.977,-7.563 -0.242,-4.406 3.133,-8.18 7.539,-8.422 7.672,-0.438 16.492,-2.844 18.156,-4.961 2.727,-3.469 7.75,-4.086 11.234,-1.344 3.47,2.727 4.079,7.759 1.345,11.235 z M 205.68,333.601 c -1.523,1.516 -3.602,2.398 -5.68,2.398 -2.078,0 -4.164,-0.883 -5.68,-2.32 -1.445,-1.523 -2.32,-3.602 -2.32,-5.68 0,-2.078 0.875,-4.164 2.32,-5.68 2.961,-2.961 8.32,-2.961 11.359,0 1.516,1.516 2.32,3.602 2.32,5.68 0,2.078 -0.804,4.157 -2.319,5.602 z m 103.999,40 c -1.523,1.516 -3.602,2.398 -5.68,2.398 -2.078,0 -4.164,-0.883 -5.68,-2.32 -1.445,-1.523 -2.32,-3.602 -2.32,-5.68 0,-2.078 0.875,-4.164 2.32,-5.68 2.961,-2.961 8.32,-2.961 11.359,0 1.516,1.516 2.32,3.602 2.32,5.68 0,2.078 -0.803,4.157 -2.319,5.602 z m 64,-176.099 c -1.523,1.516 -3.602,2.398 -5.68,2.398 -2.078,0 -4.164,-0.883 -5.68,-2.32 -1.445,-1.523 -2.32,-3.602 -2.32,-5.68 0,-2.078 0.875,-4.164 2.32,-5.68 2.961,-2.961 8.32,-2.961 11.359,0 1.516,1.516 2.32,3.602 2.32,5.68 0,2.078 -0.803,4.157 -2.319,5.602 z m 32,32.099 c -1.523,1.516 -3.602,2.398 -5.68,2.398 -2.078,0 -4.164,-0.883 -5.68,-2.32 -1.445,-1.523 -2.32,-3.602 -2.32,-5.68 0,-2.078 0.875,-4.164 2.32,-5.68 2.961,-2.961 8.32,-2.961 11.359,0 1.516,1.516 2.32,3.602 2.32,5.68 0,2.078 -0.803,4.157 -2.319,5.602 z m -35.906,-99.07 c -0.602,0.141 -1.195,0.203 -1.789,0.203 -3.648,0 -6.945,-2.508 -7.789,-6.219 -0.984,-4.305 1.703,-8.594 6.016,-9.578 24.808,-5.672 46.328,-12.667 64.396,-20.713 3.315,4.328 6.492,8.763 9.511,13.315 -19.603,9.038 -43.199,16.792 -70.345,22.992 z"
           style="fill:#ff4f19" />
        <path
           id="path4192"
           d="m 27.283,351.207 c -0.696,-1.327 -1.378,-2.663 -2.05,-4.004 0.672,1.342 1.355,2.677 2.05,4.004 z"
           style="fill:#ff4f19" />
        <path
           id="path4194"
           d="m 29.933,356.127 c -0.771,-1.391 -1.525,-2.791 -2.269,-4.198 0.743,1.407 1.499,2.807 2.269,4.198 z"
           style="fill:#ff4f19" />
        <path
           id="path4196"
           d="m 2.998,277.952 c -0.143,-0.898 -0.281,-1.798 -0.414,-2.7 0.133,0.902 0.271,1.802 0.414,2.7 z"
           style="fill:#ff4f19" />
        <path
           id="path4198"
           d="m 275.665,2.641 c 1.355,0.202 2.703,0.423 4.05,0.648 -1.348,-0.224 -2.696,-0.446 -4.05,-0.648 z"
           style="fill:#ff4f19" />
        <path
           id="path4200"
           d="m 281.394,3.568 c 1.446,0.252 2.885,0.522 4.322,0.8 -1.437,-0.277 -2.876,-0.549 -4.322,-0.8 z"
           style="fill:#ff4f19" />
        <path
           id="path4202"
           d="m 0.435,254.289 c -0.047,-0.793 -0.101,-1.583 -0.14,-2.378 0.039,0.795 0.094,1.585 0.14,2.378 z"
           style="fill:#ff4f19" />
        <path
           id="path4204"
           d="m 0.146,247.974 c -0.022,-0.667 -0.054,-1.332 -0.07,-2.001 0.016,0.668 0.048,1.333 0.07,2.001 z"
           style="fill:#ff4f19" />
        <path
           id="path4206"
           d="m 269.87,1.849 c 1.265,0.157 2.523,0.334 3.782,0.511 -1.259,-0.177 -2.517,-0.354 -3.782,-0.511 z"
           style="fill:#ff4f19" />
        <path
           id="path4208"
           d="m 246.08,0.077 c 0.765,0.019 1.525,0.058 2.288,0.084 -0.763,-0.026 -1.523,-0.065 -2.288,-0.084 z"
           style="fill:#ff4f19" />
        <path
           id="path4210"
           d="m 252.11,0.303 c 0.956,0.048 1.907,0.116 2.86,0.175 -0.953,-0.058 -1.903,-0.127 -2.86,-0.175 z"
           style="fill:#ff4f19" />
        <path
           id="path4212"
           d="m 287.051,4.623 c 1.539,0.306 3.071,0.631 4.599,0.967 -1.529,-0.335 -3.061,-0.661 -4.599,-0.967 z"
           style="fill:#ff4f19" />
        <path
           id="path4214"
           d="m 292.635,5.805 c 1.633,0.366 3.259,0.75 4.879,1.149 -1.62,-0.398 -3.245,-0.784 -4.879,-1.149 z"
           style="fill:#ff4f19" />
        <path
           id="path4216"
           d="m 298.142,7.107 c 1.735,0.432 3.462,0.883 5.182,1.353 -1.72,-0.469 -3.447,-0.921 -5.182,-1.353 z"
           style="fill:#ff4f19" />
        <path
           id="path4218"
           d="m 2.149,272.147 c -0.119,-0.886 -0.236,-1.772 -0.345,-2.66 0.11,0.888 0.227,1.774 0.345,2.66 z"
           style="fill:#ff4f19" />
        <path
           id="path4220"
           d="m 1.438,266.279 c -0.095,-0.869 -0.191,-1.737 -0.276,-2.609 0.085,0.872 0.181,1.74 0.276,2.609 z"
           style="fill:#ff4f19" />
        <path
           id="path4222"
           d="m 0.866,260.34 c -0.071,-0.843 -0.146,-1.684 -0.208,-2.529 0.062,0.845 0.138,1.687 0.208,2.529 z"
           style="fill:#ff4f19" />
        <path
           id="path4224"
           d="m 258.089,0.676 c 1.073,0.08 2.141,0.181 3.21,0.276 -1.069,-0.095 -2.137,-0.196 -3.21,-0.276 z"
           style="fill:#ff4f19" />
        <path
           id="path4226"
           d="m 7.731,300.627 c -0.249,-0.956 -0.482,-1.918 -0.72,-2.879 0.238,0.961 0.471,1.923 0.72,2.879 z"
           style="fill:#ff4f19" />
        <path
           id="path4228"
           d="m 15.854,325.916 c -0.506,-1.318 -1.009,-2.638 -1.492,-3.967 0.483,1.329 0.986,2.648 1.492,3.967 z"
           style="fill:#ff4f19" />
        <path
           id="path4230"
           d="m 9.241,306.163 c -0.29,-1.011 -0.56,-2.031 -0.837,-3.047 0.277,1.017 0.548,2.036 0.837,3.047 z"
           style="fill:#ff4f19" />
        <path
           id="path4232"
           d="m 6.349,295.035 c -0.219,-0.931 -0.424,-1.867 -0.632,-2.802 0.208,0.935 0.414,1.871 0.632,2.802 z"
           style="fill:#ff4f19" />
        <path
           id="path4234"
           d="m 14.108,321.229 c -1.555,-4.322 -2.983,-8.703 -4.293,-13.136 1.31,4.432 2.739,8.814 4.293,13.136 z"
           style="fill:#ff4f19" />
        <path
           id="path4236"
           d="m 5.1,289.396 c -0.192,-0.919 -0.375,-1.842 -0.557,-2.764 0.182,0.923 0.364,1.845 0.557,2.764 z"
           style="fill:#ff4f19" />
        <path
           id="path4238"
           d="m 3.981,283.7 c -0.167,-0.907 -0.327,-1.817 -0.483,-2.728 0.157,0.911 0.317,1.82 0.483,2.728 z"
           style="fill:#ff4f19" />
        <path
           id="path4240"
           d="m 264.01,1.192 c 1.172,0.117 2.338,0.254 3.506,0.387 -1.168,-0.133 -2.334,-0.27 -3.506,-0.387 z"
           style="fill:#ff4f19" />
        <path
           id="path4242"
           d="m 146.532,461.038 c -0.055,-0.001 -0.116,0.004 -0.171,0.002 5.193,2.203 10.499,4.183 15.878,6.005 0.472,0.162 0.948,0.317 1.421,0.475 1.227,0.407 2.452,0.819 3.688,1.208 1.986,0.63 3.983,1.236 5.992,1.816 0.035,0.01 0.07,0.022 0.105,0.032 0.001,0 0.003,-0.001 0.004,-0.002 12.15,3.499 24.694,6.069 37.553,7.619 -5.697,-5.398 -11.128,-11.075 -16.276,-17.003 -1.46,0.663 -2.921,1.326 -4.375,1.989 -5.725,2.606 -11.35,5.158 -16.817,7.36 -0.763,-0.219 -1.527,-0.437 -2.288,-0.663 -2.699,-0.804 -5.369,-1.67 -8.03,-2.559 -1.713,-0.578 -3.439,-1.131 -5.135,-1.747 -1.86,-0.668 -3.681,-1.418 -5.519,-2.133 -2.014,-0.789 -4.034,-1.565 -6.021,-2.406 9.272,0.228 23.412,-6.149 37.177,-12.414 0.22,-0.1 0.441,-0.2 0.662,-0.3 3.32,4.398 6.74,8.715 10.348,12.87 15.656,-7.109 31.495,-13.881 44.936,-13.195 34.063,1.461 51.633,-8.648 52.367,-9.086 3.797,-2.211 5.063,-7.055 2.883,-10.867 -2.18,-3.805 -7.063,-5.117 -10.891,-2.984 -0.141,0.086 -14.867,8.219 -43.688,6.953 -18.323,-0.711 -37.432,7.873 -56.006,16.331 C 154.011,408.173 136,358.205 136,304 c 0,-2.796 0.065,-5.575 0.16,-8.348 17.136,2.878 35.298,4.968 53.936,6.363 0.065,0.016 0.111,0.063 0.177,0.078 l 43.789,9.68 c 2.969,0.844 3.656,3.297 3.813,4.313 0.156,1.008 0.25,3.547 -2.313,5.258 -2.93,1.953 -4.242,5.602 -3.219,8.977 1.023,3.375 4.133,5.679 7.657,5.679 49.867,0 97.57,-5.328 137.937,-15.422 3.531,-0.875 6.016,-4.023 6.063,-7.664 0.047,-3.633 -2.367,-6.836 -5.875,-7.805 l -16.289,-4.492 15.656,-11.742 c 0.106,-0.08 0.153,-0.201 0.254,-0.285 8.658,-2.162 16.968,-4.505 24.746,-7.059 4.203,-1.383 6.484,-5.898 5.109,-10.094 -1.383,-4.203 -5.898,-6.5 -10.094,-5.109 -11.938,3.922 -25.102,7.391 -39.141,10.328 C 322.789,284.078 281.859,288 240,288 c -35.747,0 -71.085,-2.895 -102.775,-8.384 0.001,-0.014 0.002,-0.028 0.004,-0.042 -0.534,5.292 -0.831,10.651 -1.017,16.039 -3.252,-0.546 -6.532,-1.072 -9.705,-1.676 -4.344,-0.828 -7.195,-5.016 -6.367,-9.352 0.82,-4.344 5.008,-7.188 9.352,-6.367 2.503,0.477 5.193,0.816 7.745,1.259 C 149.521,158.448 251.73,64 376,64 c 9.822,0 19.485,0.659 28.998,1.806 C 376.79,39.079 342.118,19.108 303.561,8.525 303.482,8.503 303.403,8.482 303.324,8.461 301.605,7.991 299.877,7.54 298.142,7.108 297.934,7.056 297.724,7.006 297.515,6.955 295.895,6.556 294.269,6.172 292.636,5.806 292.308,5.732 291.978,5.663 291.65,5.591 290.122,5.255 288.59,4.931 287.051,4.624 286.607,4.536 286.161,4.454 285.717,4.368 284.28,4.09 282.841,3.82 281.395,3.568 280.837,3.471 280.275,3.383 279.716,3.29 278.369,3.065 277.02,2.844 275.666,2.642 274.997,2.542 274.324,2.455 273.653,2.36 272.394,2.183 271.136,2.006 269.871,1.849 269.089,1.752 268.301,1.67 267.517,1.58 266.35,1.446 265.184,1.309 264.011,1.193 263.11,1.103 262.204,1.032 261.301,0.952 260.232,0.858 259.164,0.757 258.091,0.676 257.055,0.599 256.012,0.542 254.972,0.478 254.019,0.419 253.068,0.35 252.112,0.303 250.868,0.241 249.618,0.204 248.369,0.161 247.606,0.135 246.846,0.096 246.081,0.077 244.059,0.027 242.033,0 240,0 134.986,0 45.739,67.453 13.186,161.39 c 0.463,-1.356 0.939,-2.706 1.431,-4.048 0.176,0.157 0.398,0.225 0.563,0.4 12.797,13.672 36.086,26.328 67.344,36.594 4.203,1.383 6.484,5.898 5.109,10.094 -1.109,3.375 -4.234,5.508 -7.602,5.508 -0.828,0 -1.664,-0.125 -2.492,-0.398 -29.783,-9.778 -53.172,-21.912 -68.33,-35.342 1.216,-4.272 2.51,-8.51 3.935,-12.688 C 4.635,186.105 0,212.51 0,240 c 0,1.997 0.027,3.987 0.076,5.973 0.016,0.669 0.049,1.334 0.07,2.001 0.043,1.314 0.086,2.628 0.15,3.937 0.039,0.795 0.093,1.585 0.14,2.378 0.069,1.176 0.137,2.351 0.223,3.522 0.062,0.845 0.137,1.686 0.208,2.529 0.094,1.112 0.187,2.223 0.296,3.33 0.085,0.872 0.181,1.74 0.276,2.609 0.117,1.071 0.236,2.141 0.367,3.208 0.109,0.889 0.226,1.775 0.345,2.66 0.139,1.037 0.282,2.072 0.434,3.105 0.133,0.902 0.271,1.802 0.414,2.7 0.16,1.009 0.327,2.015 0.5,3.02 0.157,0.911 0.316,1.821 0.483,2.728 0.18,0.98 0.37,1.956 0.562,2.932 0.182,0.923 0.364,1.845 0.557,2.764 0.198,0.948 0.408,1.893 0.618,2.837 0.208,0.935 0.413,1.871 0.632,2.802 0.213,0.907 0.439,1.81 0.662,2.713 0.237,0.961 0.471,1.923 0.72,2.879 0.217,0.833 0.448,1.66 0.674,2.489 0.277,1.017 0.547,2.036 0.837,3.047 0.185,0.646 0.384,1.286 0.574,1.929 1.31,4.433 2.738,8.815 4.293,13.136 0.086,0.239 0.167,0.481 0.254,0.72 0.483,1.329 0.986,2.649 1.492,3.967 0.16,0.418 0.315,0.839 0.477,1.255 0.498,1.276 1.014,2.544 1.533,3.809 0.183,0.445 0.361,0.892 0.546,1.336 0.528,1.266 1.072,2.523 1.621,3.777 0.187,0.427 0.371,0.856 0.561,1.283 0.567,1.274 1.147,2.541 1.735,3.804 0.181,0.388 0.36,0.776 0.543,1.163 0.614,1.299 1.24,2.592 1.876,3.878 0.162,0.327 0.324,0.655 0.488,0.981 0.671,1.342 1.354,2.677 2.05,4.004 0.126,0.241 0.254,0.481 0.381,0.722 0.744,1.407 1.499,2.808 2.269,4.198 0.067,0.12 0.134,0.239 0.201,0.359 25.923,46.584 66.92,83.62 116.394,104.554 z M 170.32,74.32 c 2.961,-2.961 8.32,-2.961 11.359,0 1.516,1.516 2.32,3.602 2.32,5.68 0,2.078 -0.805,4.156 -2.32,5.602 C 180.156,87.117 178.078,88 176,88 173.922,88 171.836,87.117 170.32,85.68 168.875,84.156 168,82.078 168,80 c 0,-2.078 0.875,-4.164 2.32,-5.68 z m -65.485,31.708 c 6.196,-9.737 17.263,-13.784 24.718,-9.04 7.455,4.744 8.476,16.483 2.28,26.22 -6.196,9.737 -17.262,13.784 -24.718,9.04 -7.456,-4.744 -8.476,-16.483 -2.28,-26.22 z m -49.2,168.79 c -1.982,-9.17 2.103,-17.834 9.124,-19.352 7.021,-1.518 14.32,4.686 16.302,13.856 1.982,9.17 -2.103,17.834 -9.124,19.352 -7.021,1.517 -14.32,-4.687 -16.302,-13.856 z"
           style="fill:#db3f3d" />
        <path
           id="path4244"
           d="m 272.133,216 c -16.281,-0.461 -26.086,4.914 -35.023,9.484 -9.984,5.094 -18.586,9.477 -35.797,6.625 -4.375,-0.773 -8.484,2.219 -9.203,6.578 -0.727,4.352 2.219,8.477 6.578,9.203 4.688,0.781 8.93,1.125 12.82,1.125 14.695,0 24.242,-4.875 32.875,-9.281 8.125,-4.148 15.164,-7.742 26.594,-7.742 0.344,0 0.766,0.023 1.023,0.008 4.359,0 7.93,-3.5 8,-7.867 0.07,-4.422 -3.453,-8.063 -7.867,-8.133 z"
           style="fill:#db3f3d" />
        <path
           id="path4246"
           d="m 332.945,209.711 c -3.484,-2.742 -8.508,-2.125 -11.234,1.344 -1.664,2.117 -10.484,4.523 -18.156,4.961 -4.406,0.242 -7.781,4.016 -7.539,8.422 0.234,4.266 3.758,7.563 7.977,7.563 0.148,0 0.289,0 0.438,-0.008 5.187,-0.281 22.68,-1.906 29.859,-11.047 2.733,-3.477 2.124,-8.509 -1.345,-11.235 z"
           style="fill:#db3f3d" />
        <ellipse
           id="ellipse4248"
           ry="16"
           rx="20.896999"
           cy="114.618"
           cx="118.334"
           style="fill:#a03939"
           transform="matrix(-0.5369,0.8437,-0.8437,-0.5369,278.5632,76.3195)" />
        <ellipse
           id="ellipse4250"
           ry="16.987"
           rx="13.006"
           cy="272.069"
           cx="68.348"
           style="fill:#a03939"
           transform="matrix(0.9774,-0.2113,0.2113,0.9774,-55.9416,20.5831)" />
        <path
           id="path4252"
           d="m 176,88 c 2.078,0 4.156,-0.883 5.68,-2.398 1.515,-1.446 2.32,-3.524 2.32,-5.602 0,-2.078 -0.805,-4.164 -2.32,-5.68 -3.039,-2.961 -8.398,-2.961 -11.359,0 C 168.875,75.836 168,77.922 168,80 c 0,2.078 0.875,4.156 2.32,5.68 1.516,1.437 3.602,2.32 5.68,2.32 z"
           style="fill:#a03939" />
        <path
           id="path4254"
           d="m 362.32,186.221 c -1.445,1.516 -2.32,3.602 -2.32,5.68 0,2.078 0.875,4.156 2.32,5.68 1.516,1.438 3.602,2.32 5.68,2.32 2.078,0 4.156,-0.883 5.68,-2.398 1.516,-1.445 2.32,-3.523 2.32,-5.602 0,-2.079 -0.805,-4.164 -2.32,-5.68 -3.04,-2.961 -8.399,-2.961 -11.36,0 z"
           style="fill:#db3f3d" />
        <path
           id="path4256"
           d="m 394.32,218.32 c -1.445,1.516 -2.32,3.602 -2.32,5.68 0,2.078 0.875,4.156 2.32,5.68 1.516,1.438 3.602,2.32 5.68,2.32 2.078,0 4.156,-0.883 5.68,-2.398 1.516,-1.445 2.32,-3.523 2.32,-5.602 0,-2.079 -0.805,-4.164 -2.32,-5.68 -3.04,-2.961 -8.399,-2.961 -11.36,0 z"
           style="fill:#db3f3d" />
        <path
           id="path4258"
           d="m 194.32,322.32 c -1.445,1.516 -2.32,3.602 -2.32,5.68 0,2.078 0.875,4.156 2.32,5.68 1.516,1.438 3.602,2.32 5.68,2.32 2.078,0 4.156,-0.883 5.68,-2.398 1.516,-1.445 2.32,-3.523 2.32,-5.602 0,-2.079 -0.805,-4.164 -2.32,-5.68 -3.039,-2.961 -8.399,-2.961 -11.36,0 z"
           style="fill:#db3f3d" />
        <path
           id="path4260"
           d="m 298.32,362.32 c -1.445,1.516 -2.32,3.602 -2.32,5.68 0,2.078 0.875,4.156 2.32,5.68 1.516,1.438 3.602,2.32 5.68,2.32 2.078,0 4.156,-0.883 5.68,-2.398 1.516,-1.445 2.32,-3.523 2.32,-5.602 0,-2.079 -0.805,-4.164 -2.32,-5.68 -3.04,-2.961 -8.399,-2.961 -11.36,0 z"
           style="fill:#db3f3d" />
        <path
           id="path4262"
           d="m 120.141,284.586 c -0.828,4.336 2.023,8.523 6.367,9.352 3.173,0.604 6.453,1.13 9.705,1.676 0.185,-5.388 0.482,-10.747 1.017,-16.039 0.003,-0.032 0.005,-0.065 0.009,-0.097 v 0 c -2.552,-0.443 -5.243,-0.782 -7.745,-1.259 -4.346,-0.821 -8.533,2.023 -9.353,6.367 z"
           style="fill:#a03939" />
        <path
           id="path4264"
           d="m 77.539,209.539 c 0.828,0.273 1.664,0.398 2.492,0.398 3.367,0 6.492,-2.133 7.602,-5.508 1.375,-4.195 -0.906,-8.711 -5.109,-10.094 -31.258,-10.266 -54.547,-22.922 -67.344,-36.594 -0.164,-0.175 -0.387,-0.243 -0.563,-0.4 -0.492,1.342 -0.968,2.692 -1.431,4.048 -0.014,0.04 -0.028,0.079 -0.042,0.119 -1.425,4.178 -2.719,8.417 -3.935,12.688 15.158,13.431 38.547,25.565 68.33,35.343 z"
           style="fill:#a03939" />
        <path
           id="path4266"
           d="m 184.38,448.317 c -0.22,0.1 -0.442,0.2 -0.662,0.3 -13.765,6.265 -27.904,12.642 -37.177,12.414 1.987,0.841 4.007,1.618 6.021,2.406 1.838,0.714 3.659,1.464 5.519,2.133 1.696,0.616 3.421,1.169 5.135,1.747 2.661,0.889 5.331,1.755 8.03,2.559 0.76,0.227 1.524,0.444 2.288,0.663 5.467,-2.202 11.092,-4.754 16.817,-7.36 1.454,-0.663 2.915,-1.326 4.375,-1.989 0.001,-10e-4 0.002,-10e-4 0.004,-0.002 -10e-4,-10e-4 -10e-4,-10e-4 -10e-4,-10e-4 -3.608,-4.155 -7.029,-8.472 -10.349,-12.87 z"
           style="fill:#a03939" />
        <path
           id="path4268"
           d="m 430.607,94.224 c -18.068,8.047 -39.588,15.041 -64.396,20.713 -4.313,0.984 -7,5.273 -6.016,9.578 0.844,3.711 4.141,6.219 7.789,6.219 0.594,0 1.188,-0.063 1.789,-0.203 27.146,-6.2 50.742,-13.954 70.345,-22.992 -3.02,-4.552 -6.196,-8.987 -9.511,-13.315 z"
           style="fill:#db3f3d" />
      </g>
      <g
         id="g4272" />
      <g
         id="g4274" />
      <g
         id="g4276" />
      <g
         id="g4278" />
      <g
         id="g4280" />
      <g
         id="g4282" />
      <g
         id="g4284" />
      <g
         id="g4286" />
      <g
         id="g4288" />
      <g
         id="g4290" />
      <g
         id="g4292" />
      <g
         id="g4294" />
      <g
         id="g4296" />
      <g
         id="g4298" />
      <g
         id="g4300" />
    </g>
    <path
       inkscape:export-ydpi="96"
       inkscape:export-xdpi="96"
       inkscape:export-filename="D:\Project\Unity\GravitySpace\Assets\Sprites\Background.png"
       style="opacity:1;fill:url(#radialGradient4607);fill-opacity:1;stroke:none;stroke-width:0.207155;stroke-miterlimit:4;stroke-dasharray:none"
       id="path4587"
       sodipodi:type="arc"
       sodipodi:cx="-361.13568"
       sodipodi:cy="390.79425"
       sodipodi:rx="158.75842"
       sodipodi:ry="88.73806"
       sodipodi:start="3.1537052"
       sodipodi:end="6.2750991"
       sodipodi:arc-type="slice"
       d="m -519.88246,389.71943 a 158.75842,88.73806 0 0 1 159.06639,-87.66306 158.75842,88.73806 0 0 1 158.43362,88.02033 l -158.75323,0.71755 z"
       transform="rotate(-0.05132861)" />
    <path
       inkscape:export-ydpi="96"
       inkscape:export-xdpi="96"
       inkscape:export-filename="D:\Project\Unity\GravitySpace\Assets\Sprites\Background.png"
       style="opacity:1;fill:#e3dbdb;fill-opacity:1;stroke:none;stroke-width:0.0167257;stroke-miterlimit:4;stroke-dasharray:none;filter:url(#filter5175)"
       id="path5041"
       sodipodi:type="arc"
       sodipodi:cx="-484.94345"
       sodipodi:cy="-91.513718"
       sodipodi:rx="3.4017875"
       sodipodi:ry="2.9803271"
       sodipodi:start="3.1537052"
       sodipodi:end="3.1492656"
       sodipodi:arc-type="arc"
       d="m -488.34499,-91.549816 a 3.4017875,2.9803271 0 0 1 3.43897,-2.944048 3.4017875,2.9803271 0 0 1 3.36419,3.009629 3.4017875,2.9803271 0 0 1 -3.4315,2.95073 3.4017875,2.9803271 0 0 1 -3.37181,-3.00308"
       sodipodi:open="true" />
    <path
       inkscape:export-ydpi="96"
       inkscape:export-xdpi="96"
       inkscape:export-filename="D:\Project\Unity\GravitySpace\Assets\Sprites\Background.png"
       sodipodi:open="true"
       d="m -499.68428,-75.674816 a 3.4017875,2.9803271 0 0 1 3.43896,-2.944048 3.4017875,2.9803271 0 0 1 3.3642,3.009629 3.4017875,2.9803271 0 0 1 -3.4315,2.95073 3.4017875,2.9803271 0 0 1 -3.37181,-3.00308"
       sodipodi:arc-type="arc"
       sodipodi:end="3.1492656"
       sodipodi:start="3.1537052"
       sodipodi:ry="2.9803271"
       sodipodi:rx="3.4017875"
       sodipodi:cy="-75.638718"
       sodipodi:cx="-496.28275"
       sodipodi:type="arc"
       id="path5179"
       style="opacity:1;fill:#e3dbdb;fill-opacity:1;stroke:none;stroke-width:0.0167257;stroke-miterlimit:4;stroke-dasharray:none;filter:url(#filter5175)" />
    <path
       inkscape:export-ydpi="96"
       inkscape:export-xdpi="96"
       inkscape:export-filename="D:\Project\Unity\GravitySpace\Assets\Sprites\Background.png"
       style="opacity:1;fill:#e3dbdb;fill-opacity:1;stroke:none;stroke-width:0.0167257;stroke-miterlimit:4;stroke-dasharray:none;filter:url(#filter5175)"
       id="path5185"
       sodipodi:type="arc"
       sodipodi:cx="-469.8244"
       sodipodi:cy="-76.394669"
       sodipodi:rx="3.4017875"
       sodipodi:ry="2.9803271"
       sodipodi:start="3.1537052"
       sodipodi:end="3.1492656"
       sodipodi:arc-type="arc"
       d="m -473.22594,-76.430767 a 3.4017875,2.9803271 0 0 1 3.43897,-2.944048 3.4017875,2.9803271 0 0 1 3.36419,3.00963 3.4017875,2.9803271 0 0 1 -3.4315,2.950729 3.4017875,2.9803271 0 0 1 -3.37181,-3.00308"
       sodipodi:open="true" />
    <path
       inkscape:export-ydpi="96"
       inkscape:export-xdpi="96"
       inkscape:export-filename="D:\Project\Unity\GravitySpace\Assets\Sprites\Background.png"
       sodipodi:open="true"
       d="m -463.39855,-94.573627 a 3.4017875,2.9803271 0 0 1 3.43897,-2.944049 3.4017875,2.9803271 0 0 1 3.36419,3.00963 3.4017875,2.9803271 0 0 1 -3.4315,2.950729 3.4017875,2.9803271 0 0 1 -3.37181,-3.00308"
       sodipodi:arc-type="arc"
       sodipodi:end="3.1492656"
       sodipodi:start="3.1537052"
       sodipodi:ry="2.9803271"
       sodipodi:rx="3.4017875"
       sodipodi:cy="-94.537529"
       sodipodi:cx="-459.99701"
       sodipodi:type="arc"
       id="path5187"
       style="opacity:1;fill:#e3dbdb;fill-opacity:1;stroke:none;stroke-width:0.0167257;stroke-miterlimit:4;stroke-dasharray:none;filter:url(#filter5175)" />
    <path
       inkscape:export-ydpi="96"
       inkscape:export-xdpi="96"
       inkscape:export-filename="D:\Project\Unity\GravitySpace\Assets\Sprites\Background.png"
       style="opacity:1;fill:#e3dbdb;fill-opacity:1;stroke:none;stroke-width:0.0167257;stroke-miterlimit:4;stroke-dasharray:none;filter:url(#filter5175)"
       id="path5189"
       sodipodi:type="arc"
       sodipodi:cx="-500.81845"
       sodipodi:cy="-103.60896"
       sodipodi:rx="3.4017875"
       sodipodi:ry="2.9803271"
       sodipodi:start="3.1537052"
       sodipodi:end="3.1492656"
       sodipodi:arc-type="arc"
       d="m -504.21999,-103.64506 a 3.4017875,2.9803271 0 0 1 3.43897,-2.94405 3.4017875,2.9803271 0 0 1 3.36419,3.00963 3.4017875,2.9803271 0 0 1 -3.4315,2.95073 3.4017875,2.9803271 0 0 1 -3.37181,-3.00308"
       sodipodi:open="true" />
    <path
       inkscape:export-ydpi="96"
       inkscape:export-xdpi="96"
       inkscape:export-filename="D:\Project\Unity\GravitySpace\Assets\Sprites\Background.png"
       sodipodi:open="true"
       d="m -475.49379,-106.66887 a 3.4017875,2.9803271 0 0 1 3.43896,-2.94404 3.4017875,2.9803271 0 0 1 3.3642,3.00963 3.4017875,2.9803271 0 0 1 -3.4315,2.95073 3.4017875,2.9803271 0 0 1 -3.37181,-3.00308"
       sodipodi:arc-type="arc"
       sodipodi:end="3.1492656"
       sodipodi:start="3.1537052"
       sodipodi:ry="2.9803271"
       sodipodi:rx="3.4017875"
       sodipodi:cy="-106.63277"
       sodipodi:cx="-472.09225"
       sodipodi:type="arc"
       id="path5191"
       style="opacity:1;fill:#e3dbdb;fill-opacity:1;stroke:none;stroke-width:0.0167257;stroke-miterlimit:4;stroke-dasharray:none;filter:url(#filter5175)" />
    <path
       inkscape:export-ydpi="96"
       inkscape:export-xdpi="96"
       inkscape:export-filename="D:\Project\Unity\GravitySpace\Assets\Sprites\Background.png"
       sodipodi:open="true"
       d="m -490.61284,-43.168865 a 3.4017875,2.9803271 0 0 1 3.43896,-2.944048 3.4017875,2.9803271 0 0 1 3.3642,3.009629 3.4017875,2.9803271 0 0 1 -3.4315,2.950729 3.4017875,2.9803271 0 0 1 -3.37181,-3.003079"
       sodipodi:arc-type="arc"
       sodipodi:end="3.1492656"
       sodipodi:start="3.1537052"
       sodipodi:ry="2.9803271"
       sodipodi:rx="3.4017875"
       sodipodi:cy="-43.132767"
       sodipodi:cx="-487.2113"
       sodipodi:type="arc"
       id="path5193"
       style="opacity:1;fill:#e3dbdb;fill-opacity:1;stroke:none;stroke-width:0.0167257;stroke-miterlimit:4;stroke-dasharray:none;filter:url(#filter5175)" />
    <path
       inkscape:export-ydpi="96"
       inkscape:export-xdpi="96"
       inkscape:export-filename="D:\Project\Unity\GravitySpace\Assets\Sprites\Background.png"
       style="opacity:1;fill:#e3dbdb;fill-opacity:1;stroke:none;stroke-width:0.0167257;stroke-miterlimit:4;stroke-dasharray:none;filter:url(#filter5175)"
       id="path5195"
       sodipodi:type="arc"
       sodipodi:cx="-498.5506"
       sodipodi:cy="-27.257765"
       sodipodi:rx="3.4017875"
       sodipodi:ry="2.9803271"
       sodipodi:start="3.1537052"
       sodipodi:end="3.1492656"
       sodipodi:arc-type="arc"
       d="m -501.95214,-27.293863 a 3.4017875,2.9803271 0 0 1 3.43897,-2.944049 3.4017875,2.9803271 0 0 1 3.36419,3.00963 3.4017875,2.9803271 0 0 1 -3.4315,2.950729 3.4017875,2.9803271 0 0 1 -3.37181,-3.003079"
       sodipodi:open="true" />
    <path
       inkscape:export-ydpi="96"
       inkscape:export-xdpi="96"
       inkscape:export-filename="D:\Project\Unity\GravitySpace\Assets\Sprites\Background.png"
       sodipodi:open="true"
       d="m -475.49379,-28.049814 a 3.4017875,2.9803271 0 0 1 3.43896,-2.944048 3.4017875,2.9803271 0 0 1 3.3642,3.009629 3.4017875,2.9803271 0 0 1 -3.4315,2.950729 3.4017875,2.9803271 0 0 1 -3.37181,-3.003079"
       sodipodi:arc-type="arc"
       sodipodi:end="3.1492656"
       sodipodi:start="3.1537052"
       sodipodi:ry="2.9803271"
       sodipodi:rx="3.4017875"
       sodipodi:cy="-28.013716"
       sodipodi:cx="-472.09225"
       sodipodi:type="arc"
       id="path5197"
       style="opacity:1;fill:#e3dbdb;fill-opacity:1;stroke:none;stroke-width:0.0167257;stroke-miterlimit:4;stroke-dasharray:none;filter:url(#filter5175)" />
    <path
       inkscape:export-ydpi="96"
       inkscape:export-xdpi="96"
       inkscape:export-filename="D:\Project\Unity\GravitySpace\Assets\Sprites\Background.png"
       style="opacity:1;fill:#e3dbdb;fill-opacity:1;stroke:none;stroke-width:0.0167257;stroke-miterlimit:4;stroke-dasharray:none;filter:url(#filter5175)"
       id="path5199"
       sodipodi:type="arc"
       sodipodi:cx="-462.26486"
       sodipodi:cy="-46.156578"
       sodipodi:rx="3.4017875"
       sodipodi:ry="2.9803271"
       sodipodi:start="3.1537052"
       sodipodi:end="3.1492656"
       sodipodi:arc-type="arc"
       d="m -465.6664,-46.192677 a 3.4017875,2.9803271 0 0 1 3.43897,-2.944048 3.4017875,2.9803271 0 0 1 3.36419,3.00963 3.4017875,2.9803271 0 0 1 -3.4315,2.950729 3.4017875,2.9803271 0 0 1 -3.37181,-3.00308"
       sodipodi:open="true" />
    <path
       inkscape:export-ydpi="96"
       inkscape:export-xdpi="96"
       inkscape:export-filename="D:\Project\Unity\GravitySpace\Assets\Sprites\Background.png"
       sodipodi:open="true"
       d="m -506.48784,-55.264111 a 3.4017875,2.9803271 0 0 1 3.43896,-2.944048 3.4017875,2.9803271 0 0 1 3.3642,3.00963 3.4017875,2.9803271 0 0 1 -3.4315,2.950729 3.4017875,2.9803271 0 0 1 -3.37181,-3.00308"
       sodipodi:arc-type="arc"
       sodipodi:end="3.1492656"
       sodipodi:start="3.1537052"
       sodipodi:ry="2.9803271"
       sodipodi:rx="3.4017875"
       sodipodi:cy="-55.228012"
       sodipodi:cx="-503.0863"
       sodipodi:type="arc"
       id="path5201"
       style="opacity:1;fill:#e3dbdb;fill-opacity:1;stroke:none;stroke-width:0.0167257;stroke-miterlimit:4;stroke-dasharray:none;filter:url(#filter5175)" />
    <path
       inkscape:export-ydpi="96"
       inkscape:export-xdpi="96"
       inkscape:export-filename="D:\Project\Unity\GravitySpace\Assets\Sprites\Background.png"
       style="opacity:1;fill:#e3dbdb;fill-opacity:1;stroke:none;stroke-width:0.0167257;stroke-miterlimit:4;stroke-dasharray:none;filter:url(#filter5175)"
       id="path5203"
       sodipodi:type="arc"
       sodipodi:cx="-474.36011"
       sodipodi:cy="-58.251816"
       sodipodi:rx="3.4017875"
       sodipodi:ry="2.9803271"
       sodipodi:start="3.1537052"
       sodipodi:end="3.1492656"
       sodipodi:arc-type="arc"
       d="m -477.76165,-58.287914 a 3.4017875,2.9803271 0 0 1 3.43897,-2.944049 3.4017875,2.9803271 0 0 1 3.36419,3.00963 3.4017875,2.9803271 0 0 1 -3.43149,2.950729 3.4017875,2.9803271 0 0 1 -3.37181,-3.003079"
       sodipodi:open="true" />
    <path
       inkscape:export-ydpi="96"
       inkscape:export-xdpi="96"
       inkscape:export-filename="D:\Project\Unity\GravitySpace\Assets\Sprites\Background.png"
       style="opacity:1;fill:#e3dbdb;fill-opacity:1;stroke:none;stroke-width:0.0167257;stroke-miterlimit:4;stroke-dasharray:none;filter:url(#filter5175)"
       id="path5205"
       sodipodi:type="arc"
       sodipodi:cx="-420.6875"
       sodipodi:cy="-91.513718"
       sodipodi:rx="3.4017875"
       sodipodi:ry="2.9803271"
       sodipodi:start="3.1537052"
       sodipodi:end="3.1492656"
       sodipodi:arc-type="arc"
       d="m -424.08904,-91.549816 a 3.4017875,2.9803271 0 0 1 3.43897,-2.944048 3.4017875,2.9803271 0 0 1 3.36419,3.009629 3.4017875,2.9803271 0 0 1 -3.4315,2.95073 3.4017875,2.9803271 0 0 1 -3.37181,-3.00308"
       sodipodi:open="true" />
    <path
       inkscape:export-ydpi="96"
       inkscape:export-xdpi="96"
       inkscape:export-filename="D:\Project\Unity\GravitySpace\Assets\Sprites\Background.png"
       sodipodi:open="true"
       d="m -435.42833,-75.674816 a 3.4017875,2.9803271 0 0 1 3.43896,-2.944048 3.4017875,2.9803271 0 0 1 3.3642,3.009629 3.4017875,2.9803271 0 0 1 -3.4315,2.95073 3.4017875,2.9803271 0 0 1 -3.37181,-3.00308"
       sodipodi:arc-type="arc"
       sodipodi:end="3.1492656"
       sodipodi:start="3.1537052"
       sodipodi:ry="2.9803271"
       sodipodi:rx="3.4017875"
       sodipodi:cy="-75.638718"
       sodipodi:cx="-432.02679"
       sodipodi:type="arc"
       id="path5207"
       style="opacity:1;fill:#e3dbdb;fill-opacity:1;stroke:none;stroke-width:0.0167257;stroke-miterlimit:4;stroke-dasharray:none;filter:url(#filter5175)" />
    <path
       inkscape:export-ydpi="96"
       inkscape:export-xdpi="96"
       inkscape:export-filename="D:\Project\Unity\GravitySpace\Assets\Sprites\Background.png"
       style="opacity:1;fill:#e3dbdb;fill-opacity:1;stroke:none;stroke-width:0.0167257;stroke-miterlimit:4;stroke-dasharray:none;filter:url(#filter5175)"
       id="path5209"
       sodipodi:type="arc"
       sodipodi:cx="-405.56845"
       sodipodi:cy="-76.394669"
       sodipodi:rx="3.4017875"
       sodipodi:ry="2.9803271"
       sodipodi:start="3.1537052"
       sodipodi:end="3.1492656"
       sodipodi:arc-type="arc"
       d="m -408.96999,-76.430767 a 3.4017875,2.9803271 0 0 1 3.43897,-2.944048 3.4017875,2.9803271 0 0 1 3.36419,3.00963 3.4017875,2.9803271 0 0 1 -3.4315,2.950729 3.4017875,2.9803271 0 0 1 -3.37181,-3.00308"
       sodipodi:open="true" />
    <path
       inkscape:export-ydpi="96"
       inkscape:export-xdpi="96"
       inkscape:export-filename="D:\Project\Unity\GravitySpace\Assets\Sprites\Background.png"
       sodipodi:open="true"
       d="m -399.1426,-94.573627 a 3.4017875,2.9803271 0 0 1 3.43897,-2.944049 3.4017875,2.9803271 0 0 1 3.36419,3.00963 3.4017875,2.9803271 0 0 1 -3.4315,2.950729 3.4017875,2.9803271 0 0 1 -3.37181,-3.00308"
       sodipodi:arc-type="arc"
       sodipodi:end="3.1492656"
       sodipodi:start="3.1537052"
       sodipodi:ry="2.9803271"
       sodipodi:rx="3.4017875"
       sodipodi:cy="-94.537529"
       sodipodi:cx="-395.74106"
       sodipodi:type="arc"
       id="path5211"
       style="opacity:1;fill:#e3dbdb;fill-opacity:1;stroke:none;stroke-width:0.0167257;stroke-miterlimit:4;stroke-dasharray:none;filter:url(#filter5175)" />
    <path
       inkscape:export-ydpi="96"
       inkscape:export-xdpi="96"
       inkscape:export-filename="D:\Project\Unity\GravitySpace\Assets\Sprites\Background.png"
       style="opacity:1;fill:#e3dbdb;fill-opacity:1;stroke:none;stroke-width:0.0167257;stroke-miterlimit:4;stroke-dasharray:none;filter:url(#filter5175)"
       id="path5213"
       sodipodi:type="arc"
       sodipodi:cx="-436.5625"
       sodipodi:cy="-103.60896"
       sodipodi:rx="3.4017875"
       sodipodi:ry="2.9803271"
       sodipodi:start="3.1537052"
       sodipodi:end="3.1492656"
       sodipodi:arc-type="arc"
       d="m -439.96404,-103.64506 a 3.4017875,2.9803271 0 0 1 3.43897,-2.94405 3.4017875,2.9803271 0 0 1 3.36419,3.00963 3.4017875,2.9803271 0 0 1 -3.4315,2.95073 3.4017875,2.9803271 0 0 1 -3.37181,-3.00308"
       sodipodi:open="true" />
    <path
       inkscape:export-ydpi="96"
       inkscape:export-xdpi="96"
       inkscape:export-filename="D:\Project\Unity\GravitySpace\Assets\Sprites\Background.png"
       sodipodi:open="true"
       d="m -411.23784,-106.66887 a 3.4017875,2.9803271 0 0 1 3.43896,-2.94404 3.4017875,2.9803271 0 0 1 3.3642,3.00963 3.4017875,2.9803271 0 0 1 -3.4315,2.95073 3.4017875,2.9803271 0 0 1 -3.37181,-3.00308"
       sodipodi:arc-type="arc"
       sodipodi:end="3.1492656"
       sodipodi:start="3.1537052"
       sodipodi:ry="2.9803271"
       sodipodi:rx="3.4017875"
       sodipodi:cy="-106.63277"
       sodipodi:cx="-407.8363"
       sodipodi:type="arc"
       id="path5215"
       style="opacity:1;fill:#e3dbdb;fill-opacity:1;stroke:none;stroke-width:0.0167257;stroke-miterlimit:4;stroke-dasharray:none;filter:url(#filter5175)" />
    <path
       inkscape:export-ydpi="96"
       inkscape:export-xdpi="96"
       inkscape:export-filename="D:\Project\Unity\GravitySpace\Assets\Sprites\Background.png"
       sodipodi:open="true"
       d="m -433.16048,-43.924816 a 3.4017875,2.9803271 0 0 1 3.43897,-2.944048 3.4017875,2.9803271 0 0 1 3.36419,3.009629 3.4017875,2.9803271 0 0 1 -3.4315,2.95073 3.4017875,2.9803271 0 0 1 -3.37181,-3.00308"
       sodipodi:arc-type="arc"
       sodipodi:end="3.1492656"
       sodipodi:start="3.1537052"
       sodipodi:ry="2.9803271"
       sodipodi:rx="3.4017875"
       sodipodi:cy="-43.888718"
       sodipodi:cx="-429.75894"
       sodipodi:type="arc"
       id="path5217"
       style="opacity:1;fill:#e3dbdb;fill-opacity:1;stroke:none;stroke-width:0.0167257;stroke-miterlimit:4;stroke-dasharray:none;filter:url(#filter5175)" />
    <path
       inkscape:export-ydpi="96"
       inkscape:export-xdpi="96"
       inkscape:export-filename="D:\Project\Unity\GravitySpace\Assets\Sprites\Background.png"
       style="opacity:1;fill:#e3dbdb;fill-opacity:1;stroke:none;stroke-width:0.0167257;stroke-miterlimit:4;stroke-dasharray:none;filter:url(#filter5175)"
       id="path5219"
       sodipodi:type="arc"
       sodipodi:cx="-441.09824"
       sodipodi:cy="-28.013718"
       sodipodi:rx="3.4017875"
       sodipodi:ry="2.9803271"
       sodipodi:start="3.1537052"
       sodipodi:end="3.1492656"
       sodipodi:arc-type="arc"
       d="m -444.49977,-28.049816 a 3.4017875,2.9803271 0 0 1 3.43896,-2.944048 3.4017875,2.9803271 0 0 1 3.36419,3.009629 3.4017875,2.9803271 0 0 1 -3.43149,2.95073 3.4017875,2.9803271 0 0 1 -3.37181,-3.00308"
       sodipodi:open="true" />
    <path
       inkscape:export-ydpi="96"
       inkscape:export-xdpi="96"
       inkscape:export-filename="D:\Project\Unity\GravitySpace\Assets\Sprites\Background.png"
       sodipodi:open="true"
       d="m -418.04143,-28.805767 a 3.4017875,2.9803271 0 0 1 3.43897,-2.944048 3.4017875,2.9803271 0 0 1 3.36419,3.00963 3.4017875,2.9803271 0 0 1 -3.4315,2.950729 3.4017875,2.9803271 0 0 1 -3.37181,-3.00308"
       sodipodi:arc-type="arc"
       sodipodi:end="3.1492656"
       sodipodi:start="3.1537052"
       sodipodi:ry="2.9803271"
       sodipodi:rx="3.4017875"
       sodipodi:cy="-28.769669"
       sodipodi:cx="-414.63989"
       sodipodi:type="arc"
       id="path5221"
       style="opacity:1;fill:#e3dbdb;fill-opacity:1;stroke:none;stroke-width:0.0167257;stroke-miterlimit:4;stroke-dasharray:none;filter:url(#filter5175)" />
    <path
       inkscape:export-ydpi="96"
       inkscape:export-xdpi="96"
       inkscape:export-filename="D:\Project\Unity\GravitySpace\Assets\Sprites\Background.png"
       style="opacity:1;fill:#e3dbdb;fill-opacity:1;stroke:none;stroke-width:0.0167257;stroke-miterlimit:4;stroke-dasharray:none;filter:url(#filter5175)"
       id="path5223"
       sodipodi:type="arc"
       sodipodi:cx="-404.8125"
       sodipodi:cy="-46.912529"
       sodipodi:rx="3.4017875"
       sodipodi:ry="2.9803271"
       sodipodi:start="3.1537052"
       sodipodi:end="3.1492656"
       sodipodi:arc-type="arc"
       d="m -408.21404,-46.948627 a 3.4017875,2.9803271 0 0 1 3.43897,-2.944049 3.4017875,2.9803271 0 0 1 3.36419,3.00963 3.4017875,2.9803271 0 0 1 -3.4315,2.950729 3.4017875,2.9803271 0 0 1 -3.37181,-3.00308"
       sodipodi:open="true" />
    <path
       inkscape:export-ydpi="96"
       inkscape:export-xdpi="96"
       inkscape:export-filename="D:\Project\Unity\GravitySpace\Assets\Sprites\Background.png"
       sodipodi:open="true"
       d="m -449.03548,-56.020061 a 3.4017875,2.9803271 0 0 1 3.43897,-2.944049 3.4017875,2.9803271 0 0 1 3.36419,3.00963 3.4017875,2.9803271 0 0 1 -3.4315,2.950729 3.4017875,2.9803271 0 0 1 -3.37181,-3.00308"
       sodipodi:arc-type="arc"
       sodipodi:end="3.1492656"
       sodipodi:start="3.1537052"
       sodipodi:ry="2.9803271"
       sodipodi:rx="3.4017875"
       sodipodi:cy="-55.983963"
       sodipodi:cx="-445.63394"
       sodipodi:type="arc"
       id="path5225"
       style="opacity:1;fill:#e3dbdb;fill-opacity:1;stroke:none;stroke-width:0.0167257;stroke-miterlimit:4;stroke-dasharray:none;filter:url(#filter5175)" />
    <path
       inkscape:export-ydpi="96"
       inkscape:export-xdpi="96"
       inkscape:export-filename="D:\Project\Unity\GravitySpace\Assets\Sprites\Background.png"
       style="opacity:1;fill:#e3dbdb;fill-opacity:1;stroke:none;stroke-width:0.0167257;stroke-miterlimit:4;stroke-dasharray:none;filter:url(#filter5175)"
       id="path5227"
       sodipodi:type="arc"
       sodipodi:cx="-416.90775"
       sodipodi:cy="-59.007767"
       sodipodi:rx="3.4017875"
       sodipodi:ry="2.9803271"
       sodipodi:start="3.1537052"
       sodipodi:end="3.1492656"
       sodipodi:arc-type="arc"
       d="m -420.30928,-59.043865 a 3.4017875,2.9803271 0 0 1 3.43896,-2.944048 3.4017875,2.9803271 0 0 1 3.3642,3.009629 3.4017875,2.9803271 0 0 1 -3.4315,2.950729 3.4017875,2.9803271 0 0 1 -3.37181,-3.003079"
       sodipodi:open="true" />
    <path
       inkscape:export-ydpi="96"
       inkscape:export-xdpi="96"
       inkscape:export-filename="D:\Project\Unity\GravitySpace\Assets\Sprites\Background.png"
       style="opacity:1;fill:#e3dbdb;fill-opacity:1;stroke:none;stroke-width:0.0167257;stroke-miterlimit:4;stroke-dasharray:none;filter:url(#filter5175)"
       id="path5229"
       sodipodi:type="arc"
       sodipodi:cx="-450.92545"
       sodipodi:cy="-71.872192"
       sodipodi:rx="3.4017875"
       sodipodi:ry="2.9803271"
       sodipodi:start="3.1537052"
       sodipodi:end="3.1492656"
       sodipodi:arc-type="arc"
       d="m -454.32698,-71.908291 a 3.4017875,2.9803271 0 0 1 3.43896,-2.944048 3.4017875,2.9803271 0 0 1 3.3642,3.00963 3.4017875,2.9803271 0 0 1 -3.4315,2.950729 3.4017875,2.9803271 0 0 1 -3.37181,-3.00308"
       sodipodi:open="true" />
    <path
       inkscape:export-ydpi="96"
       inkscape:export-xdpi="96"
       inkscape:export-filename="D:\Project\Unity\GravitySpace\Assets\Sprites\Background.png"
       style="opacity:1;fill:#e3dbdb;fill-opacity:1;stroke:none;stroke-width:0.0167257;stroke-miterlimit:4;stroke-dasharray:none;filter:url(#filter5175)"
       id="path5237"
       sodipodi:type="arc"
       sodipodi:cx="-465.28867"
       sodipodi:cy="6.0041318"
       sodipodi:rx="3.4017875"
       sodipodi:ry="2.9803271"
       sodipodi:start="3.1537052"
       sodipodi:end="3.1492656"
       sodipodi:arc-type="arc"
       d="m -468.6902,5.9680333 a 3.4017875,2.9803271 0 0 1 3.43896,-2.9440482 3.4017875,2.9803271 0 0 1 3.3642,3.0096298 3.4017875,2.9803271 0 0 1 -3.4315,2.9507291 3.4017875,2.9803271 0 0 1 -3.37181,-3.0030799"
       sodipodi:open="true" />
    <path
       inkscape:export-ydpi="96"
       inkscape:export-xdpi="96"
       inkscape:export-filename="D:\Project\Unity\GravitySpace\Assets\Sprites\Background.png"
       sodipodi:open="true"
       d="m -509.51165,-3.1034064 a 3.4017875,2.9803271 0 0 1 3.43897,-2.9440483 3.4017875,2.9803271 0 0 1 3.36419,3.0096299 3.4017875,2.9803271 0 0 1 -3.43149,2.95072903 3.4017875,2.9803271 0 0 1 -3.37181,-3.00307983"
       sodipodi:arc-type="arc"
       sodipodi:end="3.1492656"
       sodipodi:start="3.1537052"
       sodipodi:ry="2.9803271"
       sodipodi:rx="3.4017875"
       sodipodi:cy="-3.0673079"
       sodipodi:cx="-506.11011"
       sodipodi:type="arc"
       id="path5239"
       style="opacity:1;fill:#e3dbdb;fill-opacity:1;stroke:none;stroke-width:0.0167257;stroke-miterlimit:4;stroke-dasharray:none;filter:url(#filter5175)" />
    <path
       inkscape:export-ydpi="96"
       inkscape:export-xdpi="96"
       inkscape:export-filename="D:\Project\Unity\GravitySpace\Assets\Sprites\Background.png"
       style="opacity:1;fill:#e3dbdb;fill-opacity:1;stroke:none;stroke-width:0.0167257;stroke-miterlimit:4;stroke-dasharray:none;filter:url(#filter5175)"
       id="path5241"
       sodipodi:type="arc"
       sodipodi:cx="-477.38391"
       sodipodi:cy="-6.0911145"
       sodipodi:rx="3.4017875"
       sodipodi:ry="2.9803271"
       sodipodi:start="3.1537052"
       sodipodi:end="3.1492656"
       sodipodi:arc-type="arc"
       d="m -480.78545,-6.127213 a 3.4017875,2.9803271 0 0 1 3.43897,-2.9440483 3.4017875,2.9803271 0 0 1 3.36419,3.0096299 3.4017875,2.9803271 0 0 1 -3.4315,2.9507291 3.4017875,2.9803271 0 0 1 -3.37181,-3.0030799"
       sodipodi:open="true" />
    <path
       inkscape:export-ydpi="96"
       inkscape:export-xdpi="96"
       inkscape:export-filename="D:\Project\Unity\GravitySpace\Assets\Sprites\Background.png"
       sodipodi:open="true"
       d="m -445.25569,-3.1034064 a 3.4017875,2.9803271 0 0 1 3.43896,-2.9440483 3.4017875,2.9803271 0 0 1 3.36419,3.0096299 3.4017875,2.9803271 0 0 1 -3.43149,2.95072903 3.4017875,2.9803271 0 0 1 -3.37181,-3.00307983"
       sodipodi:arc-type="arc"
       sodipodi:end="3.1492656"
       sodipodi:start="3.1537052"
       sodipodi:ry="2.9803271"
       sodipodi:rx="3.4017875"
       sodipodi:cy="-3.0673079"
       sodipodi:cx="-441.85416"
       sodipodi:type="arc"
       id="path5261"
       style="opacity:1;fill:#e3dbdb;fill-opacity:1;stroke:none;stroke-width:0.0167257;stroke-miterlimit:4;stroke-dasharray:none;filter:url(#filter5175)" />
    <path
       inkscape:export-ydpi="96"
       inkscape:export-xdpi="96"
       inkscape:export-filename="D:\Project\Unity\GravitySpace\Assets\Sprites\Background.png"
       style="opacity:1;fill:#e3dbdb;fill-opacity:1;stroke:none;stroke-width:0.0167257;stroke-miterlimit:4;stroke-dasharray:none;filter:url(#filter5175)"
       id="path5263"
       sodipodi:type="arc"
       sodipodi:cx="-413.12796"
       sodipodi:cy="-6.0911145"
       sodipodi:rx="3.4017875"
       sodipodi:ry="2.9803271"
       sodipodi:start="3.1537052"
       sodipodi:end="3.1492656"
       sodipodi:arc-type="arc"
       d="m -416.5295,-6.127213 a 3.4017875,2.9803271 0 0 1 3.43897,-2.9440483 3.4017875,2.9803271 0 0 1 3.36419,3.0096299 3.4017875,2.9803271 0 0 1 -3.4315,2.9507291 3.4017875,2.9803271 0 0 1 -3.37181,-3.0030799"
       sodipodi:open="true" />
    <path
       inkscape:export-ydpi="96"
       inkscape:export-xdpi="96"
       inkscape:export-filename="D:\Project\Unity\GravitySpace\Assets\Sprites\Background.png"
       style="opacity:1;fill:#e3dbdb;fill-opacity:1;stroke:none;stroke-width:0.0167257;stroke-miterlimit:4;stroke-dasharray:none;filter:url(#filter5175)"
       id="path5431"
       sodipodi:type="arc"
       sodipodi:cx="-379.86609"
       sodipodi:cy="-105.12086"
       sodipodi:rx="3.4017875"
       sodipodi:ry="2.9803271"
       sodipodi:start="3.1537052"
       sodipodi:end="3.1492656"
       sodipodi:arc-type="arc"
       d="m -383.26763,-105.15696 a 3.4017875,2.9803271 0 0 1 3.43897,-2.94404 3.4017875,2.9803271 0 0 1 3.36419,3.00963 3.4017875,2.9803271 0 0 1 -3.4315,2.95072 3.4017875,2.9803271 0 0 1 -3.37181,-3.00307"
       sodipodi:open="true" />
    <path
       inkscape:export-ydpi="96"
       inkscape:export-xdpi="96"
       inkscape:export-filename="D:\Project\Unity\GravitySpace\Assets\Sprites\Background.png"
       sodipodi:open="true"
       d="m -383.26763,-89.281963 a 3.4017875,2.9803271 0 0 1 3.43897,-2.944049 3.4017875,2.9803271 0 0 1 3.36419,3.00963 3.4017875,2.9803271 0 0 1 -3.4315,2.950729 3.4017875,2.9803271 0 0 1 -3.37181,-3.00308"
       sodipodi:arc-type="arc"
       sodipodi:end="3.1492656"
       sodipodi:start="3.1537052"
       sodipodi:ry="2.9803271"
       sodipodi:rx="3.4017875"
       sodipodi:cy="-89.245865"
       sodipodi:cx="-379.86609"
       sodipodi:type="arc"
       id="path5433"
       style="opacity:1;fill:#e3dbdb;fill-opacity:1;stroke:none;stroke-width:0.0167257;stroke-miterlimit:4;stroke-dasharray:none;filter:url(#filter5175)" />
    <path
       inkscape:export-ydpi="96"
       inkscape:export-xdpi="96"
       inkscape:export-filename="D:\Project\Unity\GravitySpace\Assets\Sprites\Background.png"
       style="opacity:1;fill:#e3dbdb;fill-opacity:1;stroke:none;stroke-width:0.0167257;stroke-miterlimit:4;stroke-dasharray:none;filter:url(#filter5175)"
       id="path5435"
       sodipodi:type="arc"
       sodipodi:cx="-379.86609"
       sodipodi:cy="-68.079208"
       sodipodi:rx="3.4017875"
       sodipodi:ry="2.9803271"
       sodipodi:start="3.1537052"
       sodipodi:end="3.1492656"
       sodipodi:arc-type="arc"
       d="m -383.26763,-68.115307 a 3.4017875,2.9803271 0 0 1 3.43897,-2.944048 3.4017875,2.9803271 0 0 1 3.36419,3.00963 3.4017875,2.9803271 0 0 1 -3.4315,2.950729 3.4017875,2.9803271 0 0 1 -3.37181,-3.00308"
       sodipodi:open="true" />
    <path
       inkscape:export-ydpi="96"
       inkscape:export-xdpi="96"
       inkscape:export-filename="D:\Project\Unity\GravitySpace\Assets\Sprites\Background.png"
       sodipodi:open="true"
       d="m -383.26763,-46.948635 a 3.4017875,2.9803271 0 0 1 3.43897,-2.944048 3.4017875,2.9803271 0 0 1 3.36419,3.00963 3.4017875,2.9803271 0 0 1 -3.4315,2.950729 3.4017875,2.9803271 0 0 1 -3.37181,-3.00308"
       sodipodi:arc-type="arc"
       sodipodi:end="3.1492656"
       sodipodi:start="3.1537052"
       sodipodi:ry="2.9803271"
       sodipodi:rx="3.4017875"
       sodipodi:cy="-46.912537"
       sodipodi:cx="-379.86609"
       sodipodi:type="arc"
       id="path5437"
       style="opacity:1;fill:#e3dbdb;fill-opacity:1;stroke:none;stroke-width:0.0167257;stroke-miterlimit:4;stroke-dasharray:none;filter:url(#filter5175)" />
    <path
       inkscape:export-ydpi="96"
       inkscape:export-xdpi="96"
       inkscape:export-filename="D:\Project\Unity\GravitySpace\Assets\Sprites\Background.png"
       style="opacity:1;fill:#e3dbdb;fill-opacity:1;stroke:none;stroke-width:0.0167257;stroke-miterlimit:4;stroke-dasharray:none;filter:url(#filter5175)"
       id="path5439"
       sodipodi:type="arc"
       sodipodi:cx="-358.69946"
       sodipodi:cy="-52.204205"
       sodipodi:rx="3.4017875"
       sodipodi:ry="2.9803271"
       sodipodi:start="3.1537052"
       sodipodi:end="3.1492656"
       sodipodi:arc-type="arc"
       d="m -362.101,-52.240303 a 3.4017875,2.9803271 0 0 1 3.43897,-2.944048 3.4017875,2.9803271 0 0 1 3.36419,3.00963 3.4017875,2.9803271 0 0 1 -3.4315,2.950729 3.4017875,2.9803271 0 0 1 -3.37181,-3.00308"
       sodipodi:open="true" />
    <path
       inkscape:export-ydpi="96"
       inkscape:export-xdpi="96"
       inkscape:export-filename="D:\Project\Unity\GravitySpace\Assets\Sprites\Background.png"
       sodipodi:open="true"
       d="m -351.51769,-68.115307 a 3.4017875,2.9803271 0 0 1 3.43897,-2.944048 3.4017875,2.9803271 0 0 1 3.36419,3.00963 3.4017875,2.9803271 0 0 1 -3.4315,2.950729 3.4017875,2.9803271 0 0 1 -3.37181,-3.00308"
       sodipodi:arc-type="arc"
       sodipodi:end="3.1492656"
       sodipodi:start="3.1537052"
       sodipodi:ry="2.9803271"
       sodipodi:rx="3.4017875"
       sodipodi:cy="-68.079208"
       sodipodi:cx="-348.11615"
       sodipodi:type="arc"
       id="path5441"
       style="opacity:1;fill:#e3dbdb;fill-opacity:1;stroke:none;stroke-width:0.0167257;stroke-miterlimit:4;stroke-dasharray:none;filter:url(#filter5175)" />
    <path
       inkscape:export-ydpi="96"
       inkscape:export-xdpi="96"
       inkscape:export-filename="D:\Project\Unity\GravitySpace\Assets\Sprites\Background.png"
       style="opacity:1;fill:#e3dbdb;fill-opacity:1;stroke:none;stroke-width:0.0167257;stroke-miterlimit:4;stroke-dasharray:none;filter:url(#filter5175)"
       id="path5443"
       sodipodi:type="arc"
       sodipodi:cx="-348.11615"
       sodipodi:cy="-78.662537"
       sodipodi:rx="3.4017875"
       sodipodi:ry="2.9803271"
       sodipodi:start="3.1537052"
       sodipodi:end="3.1492656"
       sodipodi:arc-type="arc"
       d="m -351.51769,-78.698635 a 3.4017875,2.9803271 0 0 1 3.43897,-2.944048 3.4017875,2.9803271 0 0 1 3.36419,3.00963 3.4017875,2.9803271 0 0 1 -3.4315,2.950729 3.4017875,2.9803271 0 0 1 -3.37181,-3.00308"
       sodipodi:open="true" />
    <path
       inkscape:export-ydpi="96"
       inkscape:export-xdpi="96"
       inkscape:export-filename="D:\Project\Unity\GravitySpace\Assets\Sprites\Background.png"
       sodipodi:open="true"
       d="m -356.80934,-89.281963 a 3.4017875,2.9803271 0 0 1 3.43896,-2.944049 3.4017875,2.9803271 0 0 1 3.36419,3.00963 3.4017875,2.9803271 0 0 1 -3.43149,2.950729 3.4017875,2.9803271 0 0 1 -3.37181,-3.00308"
       sodipodi:arc-type="arc"
       sodipodi:end="3.1492656"
       sodipodi:start="3.1537052"
       sodipodi:ry="2.9803271"
       sodipodi:rx="3.4017875"
       sodipodi:cy="-89.245865"
       sodipodi:cx="-353.40781"
       sodipodi:type="arc"
       id="path5445"
       style="opacity:1;fill:#e3dbdb;fill-opacity:1;stroke:none;stroke-width:0.0167257;stroke-miterlimit:4;stroke-dasharray:none;filter:url(#filter5175)" />
    <path
       inkscape:export-ydpi="96"
       inkscape:export-xdpi="96"
       inkscape:export-filename="D:\Project\Unity\GravitySpace\Assets\Sprites\Background.png"
       style="opacity:1;fill:#e3dbdb;fill-opacity:1;stroke:none;stroke-width:0.0167257;stroke-miterlimit:4;stroke-dasharray:none;filter:url(#filter5175)"
       id="path5447"
       sodipodi:type="arc"
       sodipodi:cx="-348.11615"
       sodipodi:cy="-99.829193"
       sodipodi:rx="3.4017875"
       sodipodi:ry="2.9803271"
       sodipodi:start="3.1537052"
       sodipodi:end="3.1492656"
       sodipodi:arc-type="arc"
       d="m -351.51769,-99.865292 a 3.4017875,2.9803271 0 0 1 3.43897,-2.944048 3.4017875,2.9803271 0 0 1 3.36419,3.00963 3.4017875,2.9803271 0 0 1 -3.4315,2.950729 3.4017875,2.9803271 0 0 1 -3.37181,-3.00308"
       sodipodi:open="true" />
    <path
       inkscape:export-ydpi="96"
       inkscape:export-xdpi="96"
       inkscape:export-filename="D:\Project\Unity\GravitySpace\Assets\Sprites\Background.png"
       sodipodi:open="true"
       d="m -335.64272,-99.865292 a 3.4017875,2.9803271 0 0 1 3.43897,-2.944048 3.4017875,2.9803271 0 0 1 3.36419,3.00963 3.4017875,2.9803271 0 0 1 -3.4315,2.950729 3.4017875,2.9803271 0 0 1 -3.37181,-3.00308"
       sodipodi:arc-type="arc"
       sodipodi:end="3.1492656"
       sodipodi:start="3.1537052"
       sodipodi:ry="2.9803271"
       sodipodi:rx="3.4017875"
       sodipodi:cy="-99.829193"
       sodipodi:cx="-332.24118"
       sodipodi:type="arc"
       id="path5449"
       style="opacity:1;fill:#e3dbdb;fill-opacity:1;stroke:none;stroke-width:0.0167257;stroke-miterlimit:4;stroke-dasharray:none;filter:url(#filter5175)" />
    <path
       inkscape:export-ydpi="96"
       inkscape:export-xdpi="96"
       inkscape:export-filename="D:\Project\Unity\GravitySpace\Assets\Sprites\Background.png"
       style="opacity:1;fill:#e3dbdb;fill-opacity:1;stroke:none;stroke-width:0.0167257;stroke-miterlimit:4;stroke-dasharray:none;filter:url(#filter5175)"
       id="path5451"
       sodipodi:type="arc"
       sodipodi:cx="-332.24118"
       sodipodi:cy="-79.191696"
       sodipodi:rx="3.4017875"
       sodipodi:ry="2.9803271"
       sodipodi:start="3.1537052"
       sodipodi:end="3.1492656"
       sodipodi:arc-type="arc"
       d="m -335.64272,-79.227795 a 3.4017875,2.9803271 0 0 1 3.43897,-2.944048 3.4017875,2.9803271 0 0 1 3.36419,3.00963 3.4017875,2.9803271 0 0 1 -3.4315,2.950729 3.4017875,2.9803271 0 0 1 -3.37181,-3.00308"
       sodipodi:open="true" />
  </g>
</svg>
