<?xml version="1.0" encoding="UTF-8" standalone="no"?>
<svg
   xmlns:dc="http://purl.org/dc/elements/1.1/"
   xmlns:cc="http://creativecommons.org/ns#"
   xmlns:rdf="http://www.w3.org/1999/02/22-rdf-syntax-ns#"
   xmlns:svg="http://www.w3.org/2000/svg"
   xmlns="http://www.w3.org/2000/svg"
   xmlns:sodipodi="http://sodipodi.sourceforge.net/DTD/sodipodi-0.dtd"
   xmlns:inkscape="http://www.inkscape.org/namespaces/inkscape"
   width="210mm"
   height="297mm"
   viewBox="0 0 210 297"
   version="1.1"
   id="svg5461"
   inkscape:version="1.0 (4035a4fb49, 2020-05-01)"
   sodipodi:docname="Rocket.svg">
  <defs
     id="defs5455" />
  <sodipodi:namedview
     id="base"
     pagecolor="#ffffff"
     bordercolor="#666666"
     borderopacity="1.0"
     inkscape:pageopacity="0.0"
     inkscape:pageshadow="2"
     inkscape:zoom="0.7"
     inkscape:cx="-366.83735"
     inkscape:cy="978.05609"
     inkscape:document-units="mm"
     inkscape:current-layer="layer1"
     inkscape:document-rotation="0"
     showgrid="false"
     inkscape:window-width="1920"
     inkscape:window-height="1017"
     inkscape:window-x="-8"
     inkscape:window-y="-8"
     inkscape:window-maximized="1" />
  <metadata
     id="metadata5458">
    <rdf:RDF>
      <cc:Work
         rdf:about="">
        <dc:format>image/svg+xml</dc:format>
        <dc:type
           rdf:resource="http://purl.org/dc/dcmitype/StillImage" />
        <dc:title />
      </cc:Work>
    </rdf:RDF>
  </metadata>
  <g
     inkscape:label="Livello 1"
     inkscape:groupmode="layer"
     id="layer1">
    <g
       id="g6118"
       transform="matrix(0.19257352,0.18143808,-0.18143808,0.19257352,-155.76488,7.2406154)">
      <path
         id="path6024"
         fill="#475673"
         d="m 361.52,296.56 a 35.767,35.767 0 0 1 0,50.59 L 302.96,406.57 269,372.19 a 52.907,52.907 0 0 1 -0.09,-74.26 303.2,303.2 0 0 0 87.88,-46.2 l 0.03,0.04 a 35.78,35.78 0 0 0 4.7,44.79 z"
         style="fill:#37aaed;fill-opacity:1" />
      <path
         id="path6026"
         fill="#475673"
         d="m 191.96,127 a 35.751,35.751 0 0 0 44.78,4.69 304.131,304.131 0 0 0 -46.93,88.67 52.9,52.9 0 0 1 -73.48,-0.84 L 81.94,185.56 141.37,127 a 35.767,35.767 0 0 1 50.59,0 z"
         style="fill:#37aaed;fill-opacity:1" />
      <path
         id="path6028"
         fill="#ed6337"
         d="m 477.58,11 a 305.394,305.394 0 0 1 -7.91,69.22 l -0.34,-0.08 a 130.141,130.141 0 0 1 -61.07,-60.8 l -0.15,-0.31 A 303.245,303.245 0 0 1 477.58,11 Z"
         style="fill:#37aaed;fill-opacity:1" />
      <path
         id="path6030"
         fill="#e5f5fd"
         d="M 208.03,261.78 182.9,236.65 q 2.22,-8.235 4.91,-16.29 a 304.131,304.131 0 0 1 46.93,-88.67 h 0.01 A 306.813,306.813 0 0 1 408.11,19.03 l 0.15,0.31 a 130.141,130.141 0 0 0 61.07,60.8 l 0.34,0.08 a 303.176,303.176 0 0 1 -56.36,117.82 305.378,305.378 0 0 1 -56.52,55.69 303.2,303.2 0 0 1 -87.88,46.2 q -8.64,2.865 -17.52,5.21 l -23.08,-23.08 z"
         style="fill:#696969;fill-opacity:1" />
      <path
         id="path6032"
         fill="#ed6337"
         d="m 228.31,282.06 -12.77,51.65 -60.66,-60.67 53.15,-11.26 z"
         style="fill:#ed2537;fill-opacity:1" />
      <path
         id="path6034"
         fill="#fadf4a"
         d="m 183.74,327.11 a 21.793,21.793 0 0 1 -19.15,21.66 l -27.79,3.45 3.44,-27.8 a 21.833,21.833 0 0 1 43.5,2.69 z" />
      <path
         id="circle6036"
         style="fill:#50a6ea"
         d="M 374.612,151.84 A 37.867001,37.867001 0 0 1 336.745,189.707 37.867001,37.867001 0 0 1 298.87799,151.84 37.867001,37.867001 0 0 1 336.745,113.973 37.867001,37.867001 0 0 1 374.612,151.84" />
      <path
         id="path6038"
         fill="#a6b7d0"
         d="m 408.26,19.34 -0.15,-0.31 A 306.813,306.813 0 0 0 234.75,131.69 h -0.01 a 304.131,304.131 0 0 0 -46.93,88.67 q -2.685,8.055 -4.91,16.29 l 20,20 q 2.22,-8.235 4.91,-16.29 a 304.131,304.131 0 0 1 46.93,-88.67 h 0.01 A 306.985,306.985 0 0 1 421.3,40.716 130.115,130.115 0 0 1 408.26,19.34 Z"
         style="fill:#a6d0bc;fill-opacity:1" />
      <path
         id="path6040"
         fill="#f9d438"
         d="m 144.5,398.04 h -9.454 a 6,6 0 1 1 0,-12 h 9.454 a 41.764,41.764 0 0 0 9.71,-1.142 6.0000193,6.0000193 0 0 1 2.795,11.67 53.748,53.748 0 0 1 -12.505,1.472 z" />
      <path
         id="path6042"
         fill="#f9d438"
         d="M 113.387,398.038 H 97 a 6,6 0 0 1 -5.885,-4.83 57.419,57.419 0 0 1 10.255,-42 l -4.525,-0.115 a 6,6 0 0 1 -5.848,-6 53.923,53.923 0 0 1 16.103,-38.514 52.678,52.678 0 0 1 37.816,-15.552 53.414,53.414 0 0 1 6.349,0.425 c 1.683,0.211 3.425,0.517 5.163,0.91 a 53.578,53.578 0 0 1 40.294,40.48 c 0.374,1.684 0.666,3.385 0.866,5.058 a 53.447,53.447 0 0 1 -15.257,44.467 6,6 0 1 1 -8.484,-8.485 41.251,41.251 0 0 0 12.157,-29.351 41.727,41.727 0 0 0 -0.325,-5.16 q -0.238,-1.981 -0.67,-3.919 A 41.575,41.575 0 0 0 153.77,304.064 c -1.345,-0.3 -2.7,-0.543 -4.01,-0.707 a 41.119,41.119 0 0 0 -4.93,-0.33 h -0.313 A 40.9,40.9 0 0 0 115.557,315.1 42.069,42.069 0 0 0 103.4,339.254 l 11.36,0.288 a 6,6 0 0 1 3.817,10.5 46.172,46.172 0 0 0 -16.115,36 h 10.93 a 6,6 0 1 1 0,12 z" />
      <g
         id="g6072"
         fill="#ccd3df" />
      <path
         d="m 660.89096,839.79478 a 21.793,21.793 0 0 1 -19.15,21.66 l -27.79,3.45 3.44,-27.8 a 21.833,21.833 0 0 1 43.5,2.69 z"
         fill="#fadf4a"
         id="path6252" />
    </g>
    <g
       transform="matrix(0.19257352,0.18143808,-0.18143808,0.19257352,-155.76488,-88.009389)"
       id="g6184">
      <path
         style="fill:#37aaed;fill-opacity:1"
         d="m 361.52,296.56 a 35.767,35.767 0 0 1 0,50.59 L 302.96,406.57 269,372.19 a 52.907,52.907 0 0 1 -0.09,-74.26 303.2,303.2 0 0 0 87.88,-46.2 l 0.03,0.04 a 35.78,35.78 0 0 0 4.7,44.79 z"
         fill="#475673"
         id="path6162" />
      <path
         style="fill:#37aaed;fill-opacity:1"
         d="m 191.96,127 a 35.751,35.751 0 0 0 44.78,4.69 304.131,304.131 0 0 0 -46.93,88.67 52.9,52.9 0 0 1 -73.48,-0.84 L 81.94,185.56 141.37,127 a 35.767,35.767 0 0 1 50.59,0 z"
         fill="#475673"
         id="path6164" />
      <path
         style="fill:#37aaed;fill-opacity:1"
         d="m 477.58,11 a 305.394,305.394 0 0 1 -7.91,69.22 l -0.34,-0.08 a 130.141,130.141 0 0 1 -61.07,-60.8 l -0.15,-0.31 A 303.245,303.245 0 0 1 477.58,11 Z"
         fill="#ed6337"
         id="path6166" />
      <path
         style="fill:#696969;fill-opacity:1"
         d="M 208.03,261.78 182.9,236.65 q 2.22,-8.235 4.91,-16.29 a 304.131,304.131 0 0 1 46.93,-88.67 h 0.01 A 306.813,306.813 0 0 1 408.11,19.03 l 0.15,0.31 a 130.141,130.141 0 0 0 61.07,60.8 l 0.34,0.08 a 303.176,303.176 0 0 1 -56.36,117.82 305.378,305.378 0 0 1 -56.52,55.69 303.2,303.2 0 0 1 -87.88,46.2 q -8.64,2.865 -17.52,5.21 l -23.08,-23.08 z"
         fill="#e5f5fd"
         id="path6168" />
      <path
         style="fill:#ed2537;fill-opacity:1"
         d="m 228.31,282.06 -12.77,51.65 -60.66,-60.67 53.15,-11.26 z"
         fill="#ed6337"
         id="path6170" />
      <path
         d="M 374.612,151.84 A 37.867001,37.867001 0 0 1 336.745,189.707 37.867001,37.867001 0 0 1 298.87799,151.84 37.867001,37.867001 0 0 1 336.745,113.973 37.867001,37.867001 0 0 1 374.612,151.84"
         style="fill:#50a6ea"
         id="path6174" />
      <path
         style="fill:#a6d0bc;fill-opacity:1"
         d="m 408.26,19.34 -0.15,-0.31 A 306.813,306.813 0 0 0 234.75,131.69 h -0.01 a 304.131,304.131 0 0 0 -46.93,88.67 q -2.685,8.055 -4.91,16.29 l 20,20 q 2.22,-8.235 4.91,-16.29 a 304.131,304.131 0 0 1 46.93,-88.67 h 0.01 A 306.985,306.985 0 0 1 421.3,40.716 130.115,130.115 0 0 1 408.26,19.34 Z"
         fill="#a6b7d0"
         id="path6176" />
      <g
         fill="#ccd3df"
         id="g6182" />
    </g>
    <g
       inkscape:export-ydpi="95.599998"
       inkscape:export-xdpi="95.599998"
       inkscape:export-filename="D:\Project\Unity\GravitySpace\Assets\Sprites\rocket.png"
       transform="matrix(0.19257352,0.18143808,-0.18143808,0.19257352,-155.76488,102.49062)"
       id="g6226">
      <path
         style="fill:#4d1e1e;fill-opacity:1"
         d="m 361.52,296.56 a 35.767,35.767 0 0 1 0,50.59 L 302.96,406.57 269,372.19 a 52.907,52.907 0 0 1 -0.09,-74.26 303.2,303.2 0 0 0 87.88,-46.2 l 0.03,0.04 a 35.78,35.78 0 0 0 4.7,44.79 z"
         fill="#475673"
         id="path6204" />
      <path
         style="fill:#4c1e1e;fill-opacity:1"
         d="m 191.96,127 a 35.751,35.751 0 0 0 44.78,4.69 304.131,304.131 0 0 0 -46.93,88.67 52.9,52.9 0 0 1 -73.48,-0.84 L 81.94,185.56 141.37,127 a 35.767,35.767 0 0 1 50.59,0 z"
         fill="#475673"
         id="path6206" />
      <path
         style="fill:#4d1e1e;fill-opacity:1"
         d="m 477.58,11 a 305.394,305.394 0 0 1 -7.91,69.22 l -0.34,-0.08 a 130.141,130.141 0 0 1 -61.07,-60.8 l -0.15,-0.31 A 303.245,303.245 0 0 1 477.58,11 Z"
         fill="#ed6337"
         id="path6208" />
      <path
         style="fill:#696969;fill-opacity:1"
         d="M 208.03,261.78 182.9,236.65 q 2.22,-8.235 4.91,-16.29 a 304.131,304.131 0 0 1 46.93,-88.67 h 0.01 A 306.813,306.813 0 0 1 408.11,19.03 l 0.15,0.31 a 130.141,130.141 0 0 0 61.07,60.8 l 0.34,0.08 a 303.176,303.176 0 0 1 -56.36,117.82 305.378,305.378 0 0 1 -56.52,55.69 303.2,303.2 0 0 1 -87.88,46.2 q -8.64,2.865 -17.52,5.21 l -23.08,-23.08 z"
         fill="#e5f5fd"
         id="path6210" />
      <path
         style="fill:#ed2537;fill-opacity:1"
         d="m 228.31,282.06 -12.77,51.65 -60.66,-60.67 53.15,-11.26 z"
         fill="#ed6337"
         id="path6212" />
      <path
         d="m 183.74,327.11 a 21.793,21.793 0 0 1 -19.15,21.66 l -27.79,3.45 3.44,-27.8 a 21.833,21.833 0 0 1 43.5,2.69 z"
         fill="#fadf4a"
         id="path6214"
         style="fill:#52cd06;fill-opacity:1" />
      <path
         d="m 374.612,151.84 c 0,11.42401 -5.05885,21.66647 -13.05857,28.60937 -6.64497,5.76713 -15.31907,9.25763 -24.80843,9.25763 -16.14888,0 -29.93672,-10.10879 -35.38086,-24.34372 -1.60622,-4.19981 -2.48615,-8.75879 -2.48615,-13.52328 0,-2.45148 15.82148,23.15442 16.26646,20.83269 0.25983,-1.3557 -8.50775,-22.8289 -8.2804,-24.43964 0.19873,-1.40795 20.45577,12.2031 20.7346,10.84342 0.86972,-4.24093 -12.31731,-14.84243 -12.52048,-19.8194 -0.0971,-2.3797 23.64509,9.96163 24.05532,7.84905 0.54138,-2.78801 -13.32453,-14.693 -14.20014,-18.26758 -0.54711,-2.23355 24.75736,15.02695 24.93434,13.35252 0.16292,-1.54148 -14.86436,-15.712 -16.37441,-18.45402 -1.61225,-2.92759 25.92754,14.04557 25.88362,12.60151 -0.0894,-2.94056 -25.71178,-22.36555 -22.6319,-22.36555 20.91337,0 37.867,16.95363 37.867,37.867"
         style="fill:#4d1e1e;fill-opacity:1"
         id="path6216"
         sodipodi:nodetypes="cssssssssssssssc" />
      <path
         style="fill:#271f3b;fill-opacity:1"
         d="m 408.26,19.34 -0.15,-0.31 A 306.813,306.813 0 0 0 234.75,131.69 h -0.01 a 304.131,304.131 0 0 0 -46.93,88.67 q -2.685,8.055 -4.91,16.29 l 20,20 q 2.22,-8.235 4.91,-16.29 a 304.131,304.131 0 0 1 46.93,-88.67 h 0.01 A 306.985,306.985 0 0 1 421.3,40.716 130.115,130.115 0 0 1 408.26,19.34 Z"
         fill="#a6b7d0"
         id="path6218" />
      <path
         d="m 144.5,398.04 h -9.454 a 6,6 0 1 1 0,-12 h 9.454 a 41.764,41.764 0 0 0 9.71,-1.142 6.0000193,6.0000193 0 0 1 2.795,11.67 53.748,53.748 0 0 1 -12.505,1.472 z"
         fill="#f9d438"
         id="path6220"
         style="fill:#f90038;fill-opacity:1" />
      <path
         d="M 113.387,398.038 H 97 a 6,6 0 0 1 -5.885,-4.83 57.419,57.419 0 0 1 10.255,-42 l -4.525,-0.115 a 6,6 0 0 1 -5.848,-6 53.923,53.923 0 0 1 16.103,-38.514 52.678,52.678 0 0 1 37.816,-15.552 53.414,53.414 0 0 1 6.349,0.425 c 1.683,0.211 3.425,0.517 5.163,0.91 a 53.578,53.578 0 0 1 40.294,40.48 c 0.374,1.684 0.666,3.385 0.866,5.058 a 53.447,53.447 0 0 1 -15.257,44.467 6,6 0 1 1 -8.484,-8.485 41.251,41.251 0 0 0 12.157,-29.351 41.727,41.727 0 0 0 -0.325,-5.16 q -0.238,-1.981 -0.67,-3.919 A 41.575,41.575 0 0 0 153.77,304.064 c -1.345,-0.3 -2.7,-0.543 -4.01,-0.707 a 41.119,41.119 0 0 0 -4.93,-0.33 h -0.313 A 40.9,40.9 0 0 0 115.557,315.1 42.069,42.069 0 0 0 103.4,339.254 l 11.36,0.288 a 6,6 0 0 1 3.817,10.5 46.172,46.172 0 0 0 -16.115,36 h 10.93 a 6,6 0 1 1 0,12 z"
         fill="#f9d438"
         id="path6222"
         style="fill:#f90000;fill-opacity:1" />
      <g
         fill="#ccd3df"
         id="g6224" />
    </g>
    <g
       id="g6250"
       transform="matrix(0.19257352,0.18143808,-0.18143808,0.19257352,-155.76488,192.44901)">
      <path
         id="path6228"
         fill="#475673"
         d="m 361.52,296.56 a 35.767,35.767 0 0 1 0,50.59 L 302.96,406.57 269,372.19 a 52.907,52.907 0 0 1 -0.09,-74.26 303.2,303.2 0 0 0 87.88,-46.2 l 0.03,0.04 a 35.78,35.78 0 0 0 4.7,44.79 z"
         style="fill:#4d1e1e;fill-opacity:1" />
      <path
         id="path6230"
         fill="#475673"
         d="m 191.96,127 a 35.751,35.751 0 0 0 44.78,4.69 304.131,304.131 0 0 0 -46.93,88.67 52.9,52.9 0 0 1 -73.48,-0.84 L 81.94,185.56 141.37,127 a 35.767,35.767 0 0 1 50.59,0 z"
         style="fill:#4c1e1e;fill-opacity:1" />
      <path
         id="path6232"
         fill="#ed6337"
         d="m 477.58,11 a 305.394,305.394 0 0 1 -7.91,69.22 l -0.34,-0.08 a 130.141,130.141 0 0 1 -61.07,-60.8 l -0.15,-0.31 A 303.245,303.245 0 0 1 477.58,11 Z"
         style="fill:#4d1e1e;fill-opacity:1" />
      <path
         id="path6234"
         fill="#e5f5fd"
         d="M 208.03,261.78 182.9,236.65 q 2.22,-8.235 4.91,-16.29 a 304.131,304.131 0 0 1 46.93,-88.67 h 0.01 A 306.813,306.813 0 0 1 408.11,19.03 l 0.15,0.31 a 130.141,130.141 0 0 0 61.07,60.8 l 0.34,0.08 a 303.176,303.176 0 0 1 -56.36,117.82 305.378,305.378 0 0 1 -56.52,55.69 303.2,303.2 0 0 1 -87.88,46.2 q -8.64,2.865 -17.52,5.21 l -23.08,-23.08 z"
         style="fill:#696969;fill-opacity:1" />
      <path
         id="path6236"
         fill="#ed6337"
         d="m 228.31,282.06 -12.77,51.65 -60.66,-60.67 53.15,-11.26 z"
         style="fill:#ed2537;fill-opacity:1" />
      <path
         sodipodi:nodetypes="cssssssssssssssc"
         id="path6240"
         style="fill:#4d1e1e;fill-opacity:1"
         d="m 374.612,151.84 c 0,11.42401 -5.05885,21.66647 -13.05857,28.60937 -6.64497,5.76713 -15.31907,9.25763 -24.80843,9.25763 -16.14888,0 -29.93672,-10.10879 -35.38086,-24.34372 -1.60622,-4.19981 -2.48615,-8.75879 -2.48615,-13.52328 0,-2.45148 15.82148,23.15442 16.26646,20.83269 0.25983,-1.3557 -8.50775,-22.8289 -8.2804,-24.43964 0.19873,-1.40795 20.45577,12.2031 20.7346,10.84342 0.86972,-4.24093 -12.31731,-14.84243 -12.52048,-19.8194 -0.0971,-2.3797 23.64509,9.96163 24.05532,7.84905 0.54138,-2.78801 -13.32453,-14.693 -14.20014,-18.26758 -0.54711,-2.23355 24.75736,15.02695 24.93434,13.35252 0.16292,-1.54148 -14.86436,-15.712 -16.37441,-18.45402 -1.61225,-2.92759 25.92754,14.04557 25.88362,12.60151 -0.0894,-2.94056 -25.71178,-22.36555 -22.6319,-22.36555 20.91337,0 37.867,16.95363 37.867,37.867" />
      <path
         id="path6242"
         fill="#a6b7d0"
         d="m 408.26,19.34 -0.15,-0.31 A 306.813,306.813 0 0 0 234.75,131.69 h -0.01 a 304.131,304.131 0 0 0 -46.93,88.67 q -2.685,8.055 -4.91,16.29 l 20,20 q 2.22,-8.235 4.91,-16.29 a 304.131,304.131 0 0 1 46.93,-88.67 h 0.01 A 306.985,306.985 0 0 1 421.3,40.716 130.115,130.115 0 0 1 408.26,19.34 Z"
         style="fill:#271f3b;fill-opacity:1" />
      <path
         style="fill:#f90038;fill-opacity:1"
         id="path6244"
         fill="#f9d438"
         d="m 144.5,398.04 h -9.454 a 6,6 0 1 1 0,-12 h 9.454 a 41.764,41.764 0 0 0 9.71,-1.142 6.0000193,6.0000193 0 0 1 2.795,11.67 53.748,53.748 0 0 1 -12.505,1.472 z" />
      <path
         style="fill:#f90000;fill-opacity:1"
         id="path6246"
         fill="#f9d438"
         d="M 113.387,398.038 H 97 a 6,6 0 0 1 -5.885,-4.83 57.419,57.419 0 0 1 10.255,-42 l -4.525,-0.115 a 6,6 0 0 1 -5.848,-6 53.923,53.923 0 0 1 16.103,-38.514 52.678,52.678 0 0 1 37.816,-15.552 53.414,53.414 0 0 1 6.349,0.425 c 1.683,0.211 3.425,0.517 5.163,0.91 a 53.578,53.578 0 0 1 40.294,40.48 c 0.374,1.684 0.666,3.385 0.866,5.058 a 53.447,53.447 0 0 1 -15.257,44.467 6,6 0 1 1 -8.484,-8.485 41.251,41.251 0 0 0 12.157,-29.351 41.727,41.727 0 0 0 -0.325,-5.16 q -0.238,-1.981 -0.67,-3.919 A 41.575,41.575 0 0 0 153.77,304.064 c -1.345,-0.3 -2.7,-0.543 -4.01,-0.707 a 41.119,41.119 0 0 0 -4.93,-0.33 h -0.313 A 40.9,40.9 0 0 0 115.557,315.1 42.069,42.069 0 0 0 103.4,339.254 l 11.36,0.288 a 6,6 0 0 1 3.817,10.5 46.172,46.172 0 0 0 -16.115,36 h 10.93 a 6,6 0 1 1 0,12 z" />
      <g
         id="g6248"
         fill="#ccd3df" />
    </g>
  </g>
</svg>
