<?xml version="1.0" encoding="UTF-8" standalone="no"?>
<svg
   xmlns:dc="http://purl.org/dc/elements/1.1/"
   xmlns:cc="http://creativecommons.org/ns#"
   xmlns:rdf="http://www.w3.org/1999/02/22-rdf-syntax-ns#"
   xmlns:svg="http://www.w3.org/2000/svg"
   xmlns="http://www.w3.org/2000/svg"
   xmlns:sodipodi="http://sodipodi.sourceforge.net/DTD/sodipodi-0.dtd"
   xmlns:inkscape="http://www.inkscape.org/namespaces/inkscape"
   sodipodi:docname="Settings.svg"
   inkscape:version="1.0 (4035a4fb49, 2020-05-01)"
   id="svg8"
   version="1.1"
   viewBox="0 0 210 297"
   height="297mm"
   width="210mm">
  <defs
     id="defs2">
    <filter
       id="c"
       color-interpolation-filters="sRGB">
      <feGaussianBlur
         stdDeviation="0.63462833"
         id="feGaussianBlur833" />
    </filter>
    <radialGradient
       id="d"
       cx="-181.81"
       cy="1355.4"
       r="31.731"
       gradientUnits="userSpaceOnUse">
      <stop
         stop-color="#f63ec5"
         offset="0"
         id="stop836" />
      <stop
         stop-color="#f876c2"
         offset=".87786"
         id="stop838" />
      <stop
         stop-color="#f99dd2"
         offset="1"
         id="stop840" />
    </radialGradient>
  </defs>
  <sodipodi:namedview
     inkscape:window-maximized="1"
     inkscape:window-y="-8"
     inkscape:window-x="-8"
     inkscape:window-height="1017"
     inkscape:window-width="1920"
     showgrid="false"
     inkscape:document-rotation="0"
     inkscape:current-layer="layer1"
     inkscape:document-units="mm"
     inkscape:cy="397.59185"
     inkscape:cx="-221.50345"
     inkscape:zoom="5.6"
     inkscape:pageshadow="2"
     inkscape:pageopacity="0.0"
     borderopacity="1.0"
     bordercolor="#666666"
     pagecolor="#ffffff"
     id="base" />
  <metadata
     id="metadata5">
    <rdf:RDF>
      <cc:Work
         rdf:about="">
        <dc:format>image/svg+xml</dc:format>
        <dc:type
           rdf:resource="http://purl.org/dc/dcmitype/StillImage" />
        <dc:title></dc:title>
      </cc:Work>
    </rdf:RDF>
  </metadata>
  <g
     id="layer1"
     inkscape:groupmode="layer"
     inkscape:label="Livello 1">
    <g
       inkscape:export-ydpi="96"
       inkscape:export-xdpi="96"
       inkscape:export-filename="D:\Project\Unity\GravitySpace\Assets\Sprites\Settings.png"
       transform="matrix(0.26458333,0,0,0.26458333,-160.79996,-105.86381)"
       id="g865">
      <g
         transform="translate(160.08)"
         id="g855">
        <path
           transform="matrix(1.0085,0,0,1.0085,425.31,-572.52)"
           d="m -150.08,1355.4 c 0,17.525 -14.207,31.731 -31.731,31.731 -17.525,0 -31.731,-14.207 -31.731,-31.731 0,-17.525 14.207,-31.731 31.731,-31.731 17.525,0 31.731,14.207 31.731,31.731 z"
           fill="none"
           filter="url(#c)"
           stroke="#000000"
           id="path845" />
        <path
           style="fill:#a40000;fill-opacity:1"
           transform="matrix(1.0085,0,0,1.0085,425.31,-572.52)"
           d="m -150.08,1355.4 c 0,17.525 -14.207,31.731 -31.731,31.731 -17.525,0 -31.731,-14.207 -31.731,-31.731 0,-17.525 14.207,-31.731 31.731,-31.731 17.525,0 31.731,14.207 31.731,31.731 z"
           fill="url(#d)"
           id="path847" />
        <path
           transform="matrix(0.88241,0,0,0.88241,402.39,-401.65)"
           d="m -150.08,1355.4 c 0,17.525 -14.207,31.731 -31.731,31.731 -17.525,0 -31.731,-14.207 -31.731,-31.731 0,-17.525 14.207,-31.731 31.731,-31.731 17.525,0 31.731,14.207 31.731,31.731 z"
           fill="#71123b"
           id="path849" />
        <path
           style="fill:#ff8181;fill-opacity:1"
           transform="matrix(0.85089,0,0,0.85089,396.66,-358.94)"
           d="m -150.08,1355.4 c 0,17.525 -14.207,31.731 -31.731,31.731 -17.525,0 -31.731,-14.207 -31.731,-31.731 0,-17.525 14.207,-31.731 31.731,-31.731 17.525,0 31.731,14.207 31.731,31.731 z"
           fill="#ff569d"
           id="path851" />
        <path
           style="fill:#939393;fill-opacity:1"
           d="m 240.96,779.92 c -5.9532,0 -11.223,2.89 -14.5,7.3438 -1.7374,-0.5587 -3.577,-0.8438 -5.5,-0.8438 -1.7392,0 -3.4091,0.2585 -5,0.7188 -0.64736,2.3166 -1,4.758 -1,7.2812 0,14.912 12.088,27 27,27 14.912,0 27,-12.088 27,-27 0,-2.2384 -0.26779,-4.4201 -0.78125,-6.5 -2.2106,-0.9694 -4.6503,-1.5 -7.2188,-1.5 -1.923,0 -3.7626,0.2852 -5.5,0.8438 -3.2767,-4.4539 -8.5468,-7.3438 -14.5,-7.3438 z"
           fill="#f53083"
           id="path853" />
      </g>
      <g
         transform="matrix(0.51515,0,0,0.51515,250.89,775.61)"
         fill="none"
         stroke="#000000"
         stroke-opacity="0.72549"
         stroke-width="4.8529"
         id="g859">
        <path
           d="m 293.4,3.4842 c -2.2605,0 -4.4632,0.23694 -6.6,0.67031 v 5.1047 c -2.8628,0.69209 -5.544,1.8024 -7.986,3.3 l -3.6135,-3.6094 c -1.848,1.2261 -3.5392,2.6646 -5.1068,4.2281 -1.5592,1.5632 -3.003,3.2545 -4.224,5.1049 l 3.6052,3.6094 c -1.4932,2.4478 -2.607,5.1249 -3.3,7.9918 h -5.0985 c -0.43725,2.1326 -0.6765,4.3403 -0.6765,6.6 0,2.2597 0.23925,4.4674 0.6765,6.6 h 5.0985 c 0.693,2.8669 1.8068,5.544 3.3,7.9926 l -3.6052,3.6094 c 1.221,1.8496 2.6648,3.5409 4.224,5.1043 1.5675,1.5634 3.2588,3.0022 5.1068,4.2281 l 3.6135,-3.6094 c 2.442,1.4982 5.1232,2.6078 7.986,3.3 v 5.1051 c 2.1368,0.43312 4.3395,0.6699 6.6,0.6699 2.2605,0 4.4715,-0.23678 6.6,-0.6699 v -5.1051 c 2.871,-0.69217 5.544,-1.8018 7.9942,-3.3 l 3.6135,3.6094 c 1.848,-1.2259 3.5392,-2.6647 5.0985,-4.2281 1.5675,-1.5634 3.003,-3.2546 4.2322,-5.1043 l -3.6135,-3.6094 c 1.5015,-2.4486 2.607,-5.1257 3.3,-7.9926 h 5.1068 c 0.43725,-2.1326 0.66825,-4.3403 0.66825,-6.6 0,-2.2597 -0.231,-4.4674 -0.66825,-6.6 h -5.1068 c -0.693,-2.8669 -1.7985,-5.544 -3.3,-7.9918 l 3.6135,-3.6094 c -1.2292,-1.8505 -2.6648,-3.5417 -4.2322,-5.1049 -1.5592,-1.5635 -3.2505,-3.002 -5.0985,-4.2281 l -3.6135,3.6094 c -2.45,-1.497 -5.12,-2.6077 -7.99,-3.2998 v -5.1047 c -2.1285,-0.43337 -4.3395,-0.67031 -6.6,-0.67031 z m 0,16.5 c 9.108,0 16.5,7.392 16.5,16.5 0,9.108 -7.392,16.5 -16.5,16.5 -9.108,0 -16.5,-7.392 -16.5,-16.5 0,-9.108 7.392,-16.5 16.5,-16.5 z"
           fill="none"
           stroke="#000000"
           stroke-opacity="0.72549"
           stroke-width="4.8529"
           id="path857" />
      </g>
      <g
         transform="matrix(0.51515,0,0,0.51515,250.89,775.61)"
         fill="#ffffff"
         id="g863">
        <path
           d="m 293.4,3.4842 c -2.2605,0 -4.4632,0.23694 -6.6,0.67031 v 5.1047 c -2.8628,0.69209 -5.544,1.8024 -7.986,3.3 l -3.6135,-3.6094 c -1.848,1.2261 -3.5392,2.6646 -5.1068,4.2281 -1.5592,1.5632 -3.003,3.2545 -4.224,5.1049 l 3.6052,3.6094 c -1.4932,2.4478 -2.607,5.1249 -3.3,7.9918 h -5.0985 c -0.43725,2.1326 -0.6765,4.3403 -0.6765,6.6 0,2.2597 0.23925,4.4674 0.6765,6.6 h 5.0985 c 0.693,2.8669 1.8068,5.544 3.3,7.9926 l -3.6052,3.6094 c 1.221,1.8496 2.6648,3.5409 4.224,5.1043 1.5675,1.5634 3.2588,3.0022 5.1068,4.2281 l 3.6135,-3.6094 c 2.442,1.4982 5.1232,2.6078 7.986,3.3 v 5.1051 c 2.1368,0.43312 4.3395,0.6699 6.6,0.6699 2.2605,0 4.4715,-0.23678 6.6,-0.6699 v -5.1051 c 2.871,-0.69217 5.544,-1.8018 7.9942,-3.3 l 3.6135,3.6094 c 1.848,-1.2259 3.5392,-2.6647 5.0985,-4.2281 1.5675,-1.5634 3.003,-3.2546 4.2322,-5.1043 l -3.6135,-3.6094 c 1.5015,-2.4486 2.607,-5.1257 3.3,-7.9926 h 5.1068 c 0.43725,-2.1326 0.66825,-4.3403 0.66825,-6.6 0,-2.2597 -0.231,-4.4674 -0.66825,-6.6 h -5.1068 c -0.693,-2.8669 -1.7985,-5.544 -3.3,-7.9918 l 3.6135,-3.6094 c -1.2292,-1.8505 -2.6648,-3.5417 -4.2322,-5.1049 -1.5592,-1.5635 -3.2505,-3.002 -5.0985,-4.2281 l -3.6135,3.6094 c -2.45,-1.497 -5.12,-2.6077 -7.99,-3.2998 v -5.1047 c -2.1285,-0.43337 -4.3395,-0.67031 -6.6,-0.67031 z m 0,16.5 c 9.108,0 16.5,7.392 16.5,16.5 0,9.108 -7.392,16.5 -16.5,16.5 -9.108,0 -16.5,-7.392 -16.5,-16.5 0,-9.108 7.392,-16.5 16.5,-16.5 z"
           fill="#ffffff"
           id="path861" />
      </g>
    </g>
  </g>
</svg>
