<?xml version="1.0" encoding="UTF-8" standalone="no"?>
<svg
   xmlns:dc="http://purl.org/dc/elements/1.1/"
   xmlns:cc="http://creativecommons.org/ns#"
   xmlns:rdf="http://www.w3.org/1999/02/22-rdf-syntax-ns#"
   xmlns:svg="http://www.w3.org/2000/svg"
   xmlns="http://www.w3.org/2000/svg"
   xmlns:sodipodi="http://sodipodi.sourceforge.net/DTD/sodipodi-0.dtd"
   xmlns:inkscape="http://www.inkscape.org/namespaces/inkscape"
   sodipodi:docname="spaceShitMother.svg"
   inkscape:version="1.0 (4035a4fb49, 2020-05-01)"
   id="svg8"
   version="1.1"
   viewBox="0 0 210 297"
   height="297mm"
   width="210mm">
  <defs
     id="defs2" />
  <sodipodi:namedview
     inkscape:window-maximized="1"
     inkscape:window-y="-8"
     inkscape:window-x="-8"
     inkscape:window-height="1017"
     inkscape:window-width="1920"
     showgrid="false"
     inkscape:document-rotation="0"
     inkscape:current-layer="layer1"
     inkscape:document-units="mm"
     inkscape:cy="449.16654"
     inkscape:cx="-163.12694"
     inkscape:zoom="1.979899"
     inkscape:pageshadow="2"
     inkscape:pageopacity="0.0"
     borderopacity="1.0"
     bordercolor="#666666"
     pagecolor="#ffffff"
     id="base" />
  <metadata
     id="metadata5">
    <rdf:RDF>
      <cc:Work
         rdf:about="">
        <dc:format>image/svg+xml</dc:format>
        <dc:type
           rdf:resource="http://purl.org/dc/dcmitype/StillImage" />
        <dc:title></dc:title>
      </cc:Work>
    </rdf:RDF>
  </metadata>
  <g
     id="layer1"
     inkscape:groupmode="layer"
     inkscape:label="Livello 1">
    <g
       inkscape:export-ydpi="96"
       inkscape:export-xdpi="96"
       inkscape:export-filename="D:\Project\Unity\GravitySpace\Assets\Sprites\spaceshitMother.png"
       transform="matrix(-0.28221848,0,0,-0.28221848,-7.5308957,194.72712)"
       fill-rule="evenodd"
       stroke="#000000"
       id="g875">
      <path
         style="fill:#ff1137;fill-opacity:1"
         d="m 188.45,336.55 -0.58444,3.8612 c 0,0 -1.2351,0.68716 -1.2934,1.3837 -0.0582,0.69652 -0.22553,1.974 1.0569,2.1978 1.5985,0.27886 1.9132,-0.64596 2.0042,-1.497 0.0694,-0.64819 -0.22965,-1.511 -0.22965,-1.511 l 0.5754,-4.1289 z"
         fill="#00de30"
         stroke-width="1px"
         id="path833" />
      <path
         d="m 186.96,331.47 -0.71429,3.75 c 0,0 1.2764,1.505 3.0357,1.6071 1.7593,0.1021 3.2143,-1.0714 3.2143,-1.0714 l 0.53571,-3.5714 z"
         fill="#a8a8a8"
         stroke-width="1.063"
         id="path835" />
      <path
         style="fill:#00ffe5;fill-opacity:1"
         d="m 171.09,318.49 c 15.17,4.676 25.067,5.967 39.27,4.9245 0,0 -5.4743,10.553 -20.456,8.5863 -14.981,-1.9664 -18.814,-13.511 -18.814,-13.511 z"
         fill="#0067ff"
         stroke-width="1.7717"
         id="path837" />
      <path
         style="fill:#95fff4;fill-opacity:1"
         transform="matrix(0.99122,0.13224,-0.13224,0.99122,0,0)"
         d="m 283.04,265.11 c -1e-5,10.916 -23.139,24.414 -52.004,24.414 -28.865,0 -52.524,-13.498 -52.524,-24.414 7.9298,-10.893 23.399,-19.765 52.264,-19.765 28.865,0 48.063,9.7697 52.264,19.765 z"
         color="#000000"
         fill="#95b8ff"
         stroke-linecap="round"
         stroke-linejoin="bevel"
         stroke-width="1.7717"
         id="path839" />
      <path
         style="fill:#f21c1c;fill-opacity:1"
         d="m 142.21,285.99 c -2.3126,1.744 -4.2984,7.0512 -2.3737,10.208 0,0 11.883,20.001 45.162,25.855 41.474,7.2952 58.423,-12.009 58.423,-12.009 2.8475,-3.6232 3.4624,-7.9644 2.0203,-9.9678 -0.88388,4.4281 -15.481,23.039 -58.297,16.934 -30.029,-4.2818 -48.214,-24.526 -44.935,-31.019 z"
         fill="#f2701c"
         stroke-width="1.7717"
         id="path841" />
      <path
         style="fill:#80fff3;fill-opacity:1"
         d="m 170.2,282.1 c -0.65526,-1.0885 -1.3626,-1.6274 -0.10434,-4.3416 0,0 6.9814,-22.21 29.7,-18.487 22.719,3.723 21.982,26.186 21.982,26.186 0.37837,1.4601 0.15366,2.8 -0.73684,4.0072 -9.6248,8.7862 -48.294,4.8372 -50.841,-7.3642 z"
         fill="#0067ff"
         stroke-width="1.7717"
         id="path843" />
      <path
         style="fill:#3fff0a;fill-opacity:1"
         d="m 178.39,294.47 c -4.0448,-2.4507 -8.3265,0.75411 -9.9839,3.2655 -1.6492,2.499 -1.9126,8.1183 1.641,10.084 3.3464,1.8512 7.9507,-0.39653 9.5479,-3.0375 1.4314,-2.3667 2.7983,-7.8865 -1.205,-10.312 z"
         fill="#ffd200"
         stroke-width="1.063"
         id="path845" />
      <path
         d="m 181.07,298.79 c 0,0 -2.9222,-3.6783 -8.8388,-1.5152 -2.6237,0.95918 -4.5457,7.4499 -4.5457,7.4499 0,0 -1.9272,-6.6106 3.4093,-9.7227 7.7276,-4.5066 9.9752,3.7881 9.9752,3.7881 z"
         fill="#7c97c2"
         stroke-linejoin="bevel"
         stroke-width="1.063"
         id="path847" />
      <path
         style="fill:#3fff0a;fill-opacity:1"
         d="m 161.9,283.35 c -2.5164,-2.8784 -6.5987,-1.4528 -8.4898,0.0792 -1.8818,1.5245 -3.4594,5.7941 -1.2028,8.1786 2.125,2.2454 6.2217,1.6368 8.0982,-0.01 1.6816,-1.4757 4.085,-5.399 1.5944,-8.2479 z"
         fill="#ffd200"
         stroke-width="1.063"
         id="path849" />
      <path
         d="m 162.9,287.34 c 0,0 -1.3512,-3.551 -6.4382,-3.3283 -2.2557,0.0987 -5.3242,4.6352 -5.3242,4.6352 0,0 0.13259,-5.5694 5.0048,-6.6659 7.0553,-1.5877 6.7576,5.359 6.7576,5.359 z"
         fill="#7c97c2"
         stroke-linejoin="bevel"
         stroke-width="1.063"
         id="path851" />
      <path
         style="fill:#3cff08;fill-opacity:1"
         d="m 212.55,304.14 c -1.8666,-5.2335 -6.5331,-5.6126 -8.9291,-4.6283 -2.3842,0.97942 -5.1869,5.7816 -3.4601,10.213 1.6262,4.1729 6.0881,5.6472 8.4996,4.5022 2.161,-1.0261 5.7371,-4.9069 3.8896,-10.087 z"
         fill="#ffd200"
         stroke-width="1.063"
         id="path853" />
      <path
         d="m 212.54,310.01 c 0,0 -0.46341,-5.4788 -5.8607,-8.0188 -2.3933,-1.1264 -6.8321,3.1997 -6.8321,3.1997 0,0 1.6359,-7.3376 7.0427,-6.08 7.8294,1.821 5.6501,10.899 5.6501,10.899 z"
         fill="#7c97c2"
         stroke-linejoin="bevel"
         stroke-width="1.063"
         id="path855" />
      <path
         style="fill:#3fff0a;fill-opacity:1"
         d="m 227.76,293.2 c 1.8873,-2.1421 6.0519,-0.13833 8.0396,1.4722 1.9779,1.6026 5.2776,5.4597 2.9057,7.9664 -2.2335,2.3605 -6.6657,0.0792 -8.6381,-1.6518 -1.7675,-1.5513 -4.925,-4.7918 -2.3072,-7.7867 z"
         fill="#ffd200"
         stroke-width="1.063"
         id="path857" />
      <path
         d="m 227.14,294.29 c 0,0 1.9999,-0.94208 6.8302,1.3625 3.1286,1.4927 5.2173,6.0724 5.2173,6.0724 0.54133,-0.90986 0.20446,-5.2672 -5.3867,-8.3334 -5.6639,-3.106 -6.6608,0.89852 -6.6608,0.89852 z"
         fill="#7c97c2"
         stroke-linejoin="bevel"
         stroke-width="1.063"
         id="path859" />
      <path
         style="fill:#3fff0a;fill-opacity:1"
         d="m 181.96,269.96 c -3.1585,-1.586 -6.1566,1.0586 -7.2415,3.0296 -1.0796,1.9614 -1.2491,6.6409 1.5993,7.688 1.7544,0.64494 5.4962,-1.1267 6.5286,-3.1907 0.92517,-1.8498 2.2396,-5.9571 -0.88639,-7.5268 z"
         fill="#ffd200"
         stroke-width="1.063"
         id="path861" />
      <path
         d="m 183.99,273.2 c 0,0 -2.2168,-3.2823 -6.4947,-1.317 -1.897,0.87133 -3.2099,6.5393 -3.2099,6.5393 0,0 -1.5791,-5.0844 2.2728,-7.6303 5.4425,-3.5972 7.5211,1.2027 7.4318,2.4081 z"
         fill="#7c97c2"
         stroke-linejoin="bevel"
         stroke-width="1.063"
         id="path863" />
      <path
         style="fill:#3fff0a;fill-opacity:1"
         d="m 210.6,272.38 c 3.1585,-1.586 6.1566,1.0586 7.2415,3.0296 1.0796,1.9614 2.0572,6.9254 -0.70646,8.1791 -2.6026,1.1807 -6.2998,-1.8856 -7.3322,-3.9496 -0.92517,-1.8498 -2.3289,-5.6893 0.7971,-7.259 z"
         fill="#ffd200"
         stroke-width="1.063"
         id="path865" />
      <path
         d="m 213.59,283.15 c 0,0 2.7217,1.097 3.7373,-3.4999 0.45052,-2.0384 -1.5211,-5.9839 -2.3107,-7.0858 0.72049,0.60149 3.9423,2.6602 4.0256,6.7092 0.1143,5.556 -4.1828,4.8344 -5.4522,3.8765 z"
         fill="#7c97c2"
         stroke-linejoin="bevel"
         stroke-width="1.063"
         id="path867" />
      <path
         style="fill:#3fff0a;fill-opacity:1"
         d="m 198.22,274.82 c -3.5562,-1.1996 -6.3154,2.0261 -7.1632,4.2598 -0.84358,2.2228 -0.0734,6.6244 3.0184,7.5332 2.9116,0.85574 6.0864,-1.6838 6.8652,-4.0076 0.69786,-2.0825 0.79924,-6.5981 -2.7204,-7.7854 z"
         fill="#ffd200"
         stroke-width="1.063"
         id="path869" />
      <path
         d="m 200.85,282.75 c 0,0 -3.405,2.2193 -5.1482,2.3592 -2.2093,0.17738 -4.8162,-2.2058 -4.8162,-2.2058 0,0 0.87269,4.0628 4.8683,3.771 3.4616,-0.25275 5.0962,-3.9244 5.0962,-3.9244 z"
         fill="#7c97c2"
         stroke-linejoin="bevel"
         stroke-width="1.063"
         id="path871" />
      <path
         transform="matrix(0.99388,0.11048,-0.11048,0.99388,0,0)"
         d="m 229.53,240.91 a 3.1567,1.5152 0 0 1 -3.1567,1.5152 3.1567,1.5152 0 0 1 -3.1567,-1.5152 3.1567,1.5152 0 0 1 3.1567,-1.5152 3.1567,1.5152 0 0 1 3.1567,1.5152 z"
         color="#000000"
         fill="#ff0000"
         stroke-linecap="round"
         stroke-linejoin="bevel"
         stroke-width="1.063"
         id="path873" />
    </g>
  </g>
</svg>
